<svg width="23" height="14" viewBox="0 0 23 14" fill="none" xmlns="http://www.w3.org/2000/svg">
<path d="M1.156 13.616C0.916 13.552 0.96 13.4 1.288 13.16C1.408 13.072 1.472 13.02 1.48 13.004C1.504 12.972 1.516 12.936 1.516 12.896C1.524 12.864 1.524 12.82 1.516 12.764C1.508 12.708 1.504 12.668 1.504 12.644V11.972C1.528 11.34 1.544 10.992 1.552 10.928C1.56 10.872 1.56 10.788 1.552 10.676C1.544 10.556 1.544 10.464 1.552 10.4C1.56 10.352 1.584 10.26 1.624 10.124C1.664 9.988 1.688 9.884 1.696 9.812C1.728 9.468 1.796 9.104 1.9 8.72C1.94 8.56 1.98 8.336 2.02 8.048C2.068 7.752 2.104 7.544 2.128 7.424C2.2 7.112 2.284 6.656 2.38 6.056C2.484 5.456 2.544 5.12 2.56 5.048C2.568 5.024 2.588 4.94 2.62 4.796C2.66 4.644 2.68 4.524 2.68 4.436C2.68 4.284 2.708 4.088 2.764 3.848C2.868 3.504 2.916 3.28 2.908 3.176C2.892 2.936 2.956 2.716 3.1 2.516C3.14 2.46 3.168 2.408 3.184 2.36C3.2 2.312 3.212 2.256 3.22 2.192C3.228 2.12 3.236 2.064 3.244 2.024C3.252 1.976 3.276 1.928 3.316 1.88C3.356 1.824 3.388 1.784 3.412 1.76C3.436 1.728 3.484 1.68 3.556 1.616C3.628 1.552 3.668 1.516 3.676 1.508C3.82 1.372 3.992 1.32 4.192 1.352C4.28 1.368 4.4 1.36 4.552 1.328C4.712 1.288 4.824 1.268 4.888 1.268C4.952 1.26 4.988 1.26 4.996 1.268C5.468 1.268 5.828 1.312 6.076 1.4C6.148 1.424 6.264 1.464 6.424 1.52C6.592 1.568 6.736 1.616 6.856 1.664C6.984 1.712 7.1 1.768 7.204 1.832C7.332 1.912 7.396 2.016 7.396 2.144C7.396 2.304 7.284 2.36 7.06 2.312C6.7 2.232 6.236 2.148 5.668 2.06C5.532 2.036 5.34 2.032 5.092 2.048C4.852 2.064 4.664 2.064 4.528 2.048C4.416 2.032 4.34 2.06 4.3 2.132C4.268 2.196 4.256 2.296 4.264 2.432C4.28 2.56 4.284 2.636 4.276 2.66C4.244 2.804 4.212 3.008 4.18 3.272C4.148 3.536 4.12 3.724 4.096 3.836C4.088 3.876 4.06 3.956 4.012 4.076C3.964 4.196 3.94 4.284 3.94 4.34C3.94 4.484 3.9 4.692 3.82 4.964C3.788 5.084 3.756 5.26 3.724 5.492C3.7 5.724 3.668 5.896 3.628 6.008C3.492 6.464 3.384 6.9 3.304 7.316C3.256 7.596 3.156 7.996 3.004 8.516C2.852 9.036 2.752 9.412 2.704 9.644C2.6 10.132 2.524 10.52 2.476 10.808C2.452 10.936 2.424 11.124 2.392 11.372C2.368 11.62 2.344 11.804 2.32 11.924C2.288 12.172 2.276 12.336 2.284 12.416C2.284 12.44 2.28 12.484 2.272 12.548C2.272 12.62 2.272 12.684 2.272 12.74C2.28 12.796 2.3 12.84 2.332 12.872C2.388 12.928 2.5 12.956 2.668 12.956C2.74 12.956 2.844 12.948 2.98 12.932C3.116 12.924 3.196 12.92 3.22 12.92C3.356 12.92 3.396 12.872 3.34 12.776C3.324 12.752 3.248 12.74 3.112 12.74C2.808 12.74 2.644 12.736 2.62 12.728C2.54 12.696 2.512 12.652 2.536 12.596C2.56 12.548 2.604 12.508 2.668 12.476C2.74 12.444 2.82 12.428 2.908 12.428C3.012 12.428 3.12 12.452 3.232 12.5C3.296 12.524 3.388 12.544 3.508 12.56C3.636 12.576 3.732 12.596 3.796 12.62C3.956 12.684 4.132 12.728 4.324 12.752C4.46 12.776 4.588 12.86 4.708 13.004C4.756 13.06 4.828 13.12 4.924 13.184C5.028 13.256 5.096 13.308 5.128 13.34C5.192 13.404 5.212 13.468 5.188 13.532C5.172 13.596 5.124 13.648 5.044 13.688C4.98 13.72 4.908 13.736 4.828 13.736C4.74 13.736 4.636 13.716 4.516 13.676C4.188 13.564 3.816 13.516 3.4 13.532C3.296 13.54 3.132 13.54 2.908 13.532C2.692 13.524 2.528 13.524 2.416 13.532C2.128 13.548 1.908 13.556 1.756 13.556C1.716 13.556 1.624 13.568 1.48 13.592C1.336 13.624 1.228 13.632 1.156 13.616ZM3.712 2.636C3.712 2.644 3.708 2.688 3.7 2.768C3.692 2.848 3.688 2.92 3.688 2.984C3.688 3.048 3.7 3.088 3.724 3.104C3.764 3.128 3.8 3.128 3.832 3.104C3.864 3.072 3.884 3.024 3.892 2.96C3.908 2.896 3.916 2.844 3.916 2.804C3.924 2.756 3.928 2.72 3.928 2.696C3.928 2.672 3.932 2.632 3.94 2.576C3.948 2.52 3.952 2.472 3.952 2.432C3.952 2.392 3.948 2.348 3.94 2.3C3.94 2.252 3.928 2.216 3.904 2.192C3.88 2.168 3.844 2.156 3.796 2.156C3.74 2.156 3.712 2.316 3.712 2.636ZM10.8924 11C10.5884 10.96 10.4364 10.804 10.4364 10.532C10.4364 10.436 10.5004 10.176 10.6284 9.752C10.7404 9.384 10.9764 8.784 11.3364 7.952C11.3764 7.864 11.4404 7.712 11.5284 7.496C11.6164 7.272 11.6884 7.1 11.7444 6.98C11.9764 6.468 12.1084 6.144 12.1404 6.008C12.2204 5.6 12.3324 5.272 12.4764 5.024C12.5084 4.976 12.5444 4.88 12.5844 4.736C12.6324 4.592 12.6804 4.48 12.7284 4.4C12.7844 4.312 12.8604 4.268 12.9564 4.268C13.0364 4.268 13.0964 4.284 13.1364 4.316C13.1844 4.34 13.2164 4.388 13.2324 4.46C13.2484 4.532 13.2564 4.58 13.2564 4.604C13.2564 4.628 13.2564 4.688 13.2564 4.784C13.2564 5.12 13.2644 5.372 13.2804 5.54C13.2964 5.74 13.2644 6.032 13.1844 6.416C13.1604 6.552 13.0644 6.852 12.8964 7.316C12.8804 7.364 12.8604 7.44 12.8364 7.544C12.8204 7.648 12.8004 7.744 12.7764 7.832C12.7524 7.912 12.7164 7.976 12.6684 8.024C12.6124 8.088 12.5204 8.092 12.3924 8.036C12.3684 8.028 12.3484 8.024 12.3324 8.024C12.3164 8.024 12.3004 8.028 12.2844 8.036C12.2684 8.044 12.2524 8.052 12.2364 8.06C12.2284 8.068 12.2164 8.084 12.2004 8.108C12.1924 8.124 12.1844 8.14 12.1764 8.156C12.1764 8.164 12.1684 8.18 12.1524 8.204C12.1444 8.228 12.1404 8.244 12.1404 8.252C12.1244 8.3 12.0924 8.368 12.0444 8.456C12.0044 8.536 11.9764 8.592 11.9604 8.624C11.9444 8.656 11.9284 8.716 11.9124 8.804C11.8964 8.892 11.8764 8.956 11.8524 8.996C11.8364 9.028 11.7684 9.136 11.6484 9.32C11.6164 9.368 11.5724 9.444 11.5164 9.548C11.4684 9.644 11.4284 9.716 11.3964 9.764C11.3004 9.9 11.3004 9.992 11.3964 10.04C11.4444 10.064 11.5204 10.012 11.6244 9.884C11.6804 9.812 11.7324 9.776 11.7804 9.776C11.8204 9.776 11.8484 9.804 11.8644 9.86C11.8884 9.908 11.8884 9.968 11.8644 10.04C11.8484 10.104 11.8204 10.168 11.7804 10.232C11.7404 10.296 11.6884 10.368 11.6244 10.448C11.5684 10.528 11.5284 10.588 11.5044 10.628C11.3364 10.908 11.1324 11.032 10.8924 11ZM12.3924 7.616C12.3124 7.616 12.2884 7.644 12.3204 7.7C12.3604 7.764 12.4164 7.772 12.4884 7.724C12.5604 7.676 12.5484 7.644 12.4524 7.628C12.4284 7.62 12.4084 7.616 12.3924 7.616ZM17.8363 13.328C17.6683 13.296 17.5403 13.228 17.4523 13.124C17.3643 13.028 17.3803 12.916 17.5003 12.788C17.6683 12.652 17.9163 12.584 18.2443 12.584C18.2923 12.584 18.3683 12.584 18.4723 12.584C18.5683 12.592 18.6363 12.596 18.6763 12.596C19.0043 12.62 19.2163 12.624 19.3123 12.608C19.3763 12.592 19.4603 12.556 19.5643 12.5C19.6683 12.444 19.7483 12.412 19.8043 12.404C19.8763 12.388 20.0043 12.396 20.1883 12.428C20.3803 12.468 20.5123 12.488 20.5843 12.488C20.7283 12.488 20.8243 12.448 20.8723 12.368C20.9123 12.352 20.9123 12.272 20.8723 12.128C20.8403 11.984 20.8243 11.9 20.8243 11.876C20.8243 11.756 20.8163 11.56 20.8003 11.288C20.7923 11.224 20.7923 11.136 20.8003 11.024C20.8163 10.92 20.8243 10.848 20.8243 10.808C20.8243 10.736 20.7763 10.664 20.6803 10.592C20.5923 10.52 20.5403 10.464 20.5243 10.424C20.5083 10.376 20.5123 10.3 20.5363 10.196C20.5603 10.084 20.5683 10.008 20.5603 9.968C20.5363 9.784 20.5243 9.608 20.5243 9.44C20.5243 9.016 20.5403 8.696 20.5723 8.48C20.5963 8.336 20.6163 8.14 20.6323 7.892C20.6563 7.636 20.6763 7.456 20.6923 7.352C20.7083 7.224 20.7243 7.088 20.7403 6.944C20.7643 6.792 20.7883 6.628 20.8123 6.452C20.8363 6.276 20.8563 6.136 20.8723 6.032C20.8883 5.912 20.9043 5.728 20.9203 5.48C20.9363 5.224 20.9523 5.036 20.9683 4.916C20.9843 4.804 20.9963 4.616 21.0043 4.352C21.0203 4.08 21.0443 3.876 21.0763 3.74C21.1723 3.244 21.2603 2.868 21.3403 2.612C21.3483 2.588 21.3643 2.516 21.3883 2.396C21.4203 2.276 21.4483 2.188 21.4723 2.132C21.5603 1.932 21.5643 1.756 21.4843 1.604C21.4043 1.452 21.3363 1.376 21.2803 1.376C21.2243 1.376 21.1563 1.416 21.0763 1.496C20.9883 1.576 20.8163 1.644 20.5603 1.7C20.3043 1.756 20.0883 1.784 19.9123 1.784C19.8403 1.784 19.7563 1.796 19.6603 1.82C19.5723 1.844 19.5123 1.86 19.4803 1.868C19.3443 1.892 19.2603 1.848 19.2283 1.736C19.2043 1.616 19.2243 1.52 19.2883 1.448C19.3363 1.392 19.3883 1.348 19.4443 1.316C19.5003 1.276 19.5363 1.252 19.5523 1.244C19.5763 1.228 19.6363 1.212 19.7323 1.196C19.8363 1.172 19.9003 1.156 19.9243 1.148C20.0203 1.124 20.1563 1.08 20.3323 1.016C20.5083 0.944 20.6163 0.904 20.6563 0.895999C20.7043 0.879999 20.8123 0.832 20.9803 0.752C21.1563 0.672 21.2963 0.624 21.4003 0.607999C21.5283 0.592 21.6643 0.556 21.8083 0.499999C22.0243 0.427999 22.1443 0.391999 22.1683 0.391999C22.3923 0.391999 22.5323 0.431999 22.5883 0.512C22.6203 0.536 22.6283 0.571999 22.6123 0.619999C22.6043 0.66 22.5963 0.692 22.5883 0.715999C22.5803 0.732 22.5603 0.764 22.5283 0.812C22.4963 0.852 22.4763 0.884 22.4683 0.908C22.4523 0.948 22.4363 1.02 22.4203 1.124C22.4043 1.22 22.3763 1.292 22.3363 1.34C22.3203 1.364 22.2883 1.396 22.2403 1.436C22.2003 1.476 22.1723 1.508 22.1563 1.532C22.1483 1.548 22.1323 1.58 22.1083 1.628C22.0923 1.676 22.0963 1.716 22.1203 1.748C22.1763 1.916 22.1603 2.068 22.0723 2.204C22.0323 2.252 22.0203 2.332 22.0363 2.444C22.0523 2.548 22.0523 2.624 22.0363 2.672C22.0123 2.752 21.9603 2.936 21.8803 3.224C21.8003 3.504 21.7483 3.72 21.7243 3.872C21.6363 4.4 21.5923 4.76 21.5923 4.952C21.5923 5.112 21.5723 5.34 21.5323 5.636C21.4923 5.932 21.4683 6.12 21.4603 6.2C21.4443 6.344 21.4363 6.56 21.4363 6.848C21.4363 6.872 21.4443 6.94 21.4603 7.052C21.4763 7.164 21.4763 7.232 21.4603 7.256C21.4283 7.408 21.4403 7.752 21.4963 8.288C21.5443 8.68 21.6083 9.056 21.6883 9.416C21.7123 9.528 21.7243 9.7 21.7243 9.932C21.7243 9.996 21.7483 10.096 21.7963 10.232C21.8523 10.36 21.8763 10.456 21.8683 10.52C21.8603 10.664 21.8563 10.876 21.8563 11.156C21.8563 11.86 21.8283 12.356 21.7723 12.644C21.7723 12.652 21.7643 12.688 21.7483 12.752C21.7403 12.824 21.7323 12.876 21.7243 12.908C21.7163 12.948 21.7043 13.004 21.6883 13.076C21.6723 13.148 21.6523 13.204 21.6283 13.244C21.6123 13.284 21.5883 13.324 21.5563 13.364C21.5323 13.412 21.5003 13.44 21.4603 13.448C21.4283 13.464 21.3883 13.468 21.3403 13.46C21.2843 13.444 21.2483 13.4 21.2323 13.328C21.2243 13.256 21.2003 13.22 21.1603 13.22C21.1123 13.22 21.0723 13.232 21.0403 13.256C21.0163 13.288 20.9923 13.332 20.9683 13.388C20.9443 13.444 20.9243 13.484 20.9083 13.508C20.7723 13.7 20.5123 13.796 20.1283 13.796C20.0083 13.796 19.8923 13.784 19.7803 13.76C19.7003 13.744 19.6483 13.712 19.6243 13.664C19.6003 13.616 19.6163 13.568 19.6723 13.52C19.7043 13.496 19.7683 13.48 19.8643 13.472C19.9683 13.464 20.0283 13.44 20.0443 13.4C20.0603 13.352 20.0323 13.316 19.9603 13.292C19.8883 13.276 19.7923 13.268 19.6723 13.268C19.4083 13.268 19.2043 13.288 19.0603 13.328C18.7723 13.392 18.5763 13.416 18.4723 13.4C18.3923 13.384 18.2843 13.368 18.1483 13.352C18.0043 13.344 17.9003 13.336 17.8363 13.328ZM20.6203 13.292C20.6283 13.236 20.6043 13.208 20.5483 13.208C20.4923 13.208 20.4483 13.244 20.4163 13.316C20.4003 13.372 20.4243 13.4 20.4883 13.4C20.5683 13.4 20.6123 13.364 20.6203 13.292ZM21.5923 1.136C21.5603 1.144 21.5243 1.164 21.4843 1.196C21.4443 1.228 21.4443 1.256 21.4843 1.28C21.5483 1.32 21.6043 1.304 21.6523 1.232C21.6923 1.168 21.6803 1.136 21.6163 1.136C21.6083 1.136 21.6003 1.136 21.5923 1.136Z" fill="white"/>
</svg>
