<svg width="33" height="19" viewBox="0 0 33 19" fill="none" xmlns="http://www.w3.org/2000/svg">
<path d="M1.208 18.488C0.888 18.4027 0.946667 18.2 1.384 17.88C1.544 17.7627 1.62933 17.6933 1.64 17.672C1.672 17.6293 1.688 17.5813 1.688 17.528C1.69867 17.4853 1.69867 17.4267 1.688 17.352C1.67733 17.2773 1.672 17.224 1.672 17.192V16.296C1.704 15.4533 1.72533 14.9893 1.736 14.904C1.74667 14.8293 1.74667 14.7173 1.736 14.568C1.72533 14.408 1.72533 14.2853 1.736 14.2C1.74667 14.136 1.77867 14.0133 1.832 13.832C1.88533 13.6507 1.91733 13.512 1.928 13.416C1.97067 12.9573 2.06133 12.472 2.2 11.96C2.25333 11.7467 2.30667 11.448 2.36 11.064C2.424 10.6693 2.472 10.392 2.504 10.232C2.6 9.816 2.712 9.208 2.84 8.408C2.97867 7.608 3.05867 7.16 3.08 7.064C3.09067 7.032 3.11733 6.92 3.16 6.728C3.21333 6.52533 3.24 6.36533 3.24 6.248C3.24 6.04533 3.27733 5.784 3.352 5.464C3.49067 5.00533 3.55467 4.70667 3.544 4.568C3.52267 4.248 3.608 3.95467 3.8 3.688C3.85333 3.61333 3.89067 3.544 3.912 3.48C3.93333 3.416 3.94933 3.34133 3.96 3.256C3.97067 3.16 3.98133 3.08533 3.992 3.032C4.00267 2.968 4.03467 2.904 4.088 2.84C4.14133 2.76533 4.184 2.712 4.216 2.68C4.248 2.63733 4.312 2.57333 4.408 2.488C4.504 2.40267 4.55733 2.35467 4.568 2.344C4.76 2.16267 4.98933 2.09333 5.256 2.136C5.37333 2.15733 5.53333 2.14667 5.736 2.104C5.94933 2.05067 6.09867 2.024 6.184 2.024C6.26933 2.01333 6.31733 2.01333 6.328 2.024C6.95733 2.024 7.43733 2.08267 7.768 2.2C7.864 2.232 8.01867 2.28533 8.232 2.36C8.456 2.424 8.648 2.488 8.808 2.552C8.97867 2.616 9.13333 2.69067 9.272 2.776C9.44267 2.88267 9.528 3.02133 9.528 3.192C9.528 3.40533 9.37867 3.48 9.08 3.416C8.6 3.30933 7.98133 3.19733 7.224 3.08C7.04267 3.048 6.78667 3.04267 6.456 3.064C6.136 3.08533 5.88533 3.08533 5.704 3.064C5.55467 3.04267 5.45333 3.08 5.4 3.176C5.35733 3.26133 5.34133 3.39467 5.352 3.576C5.37333 3.74667 5.37867 3.848 5.368 3.88C5.32533 4.072 5.28267 4.344 5.24 4.696C5.19733 5.048 5.16 5.29867 5.128 5.448C5.11733 5.50133 5.08 5.608 5.016 5.768C4.952 5.928 4.92 6.04533 4.92 6.12C4.92 6.312 4.86667 6.58933 4.76 6.952C4.71733 7.112 4.67467 7.34667 4.632 7.656C4.6 7.96533 4.55733 8.19467 4.504 8.344C4.32267 8.952 4.17867 9.53333 4.072 10.088C4.008 10.4613 3.87467 10.9947 3.672 11.688C3.46933 12.3813 3.336 12.8827 3.272 13.192C3.13333 13.8427 3.032 14.36 2.968 14.744C2.936 14.9147 2.89867 15.1653 2.856 15.496C2.824 15.8267 2.792 16.072 2.76 16.232C2.71733 16.5627 2.70133 16.7813 2.712 16.888C2.712 16.92 2.70667 16.9787 2.696 17.064C2.696 17.16 2.696 17.2453 2.696 17.32C2.70667 17.3947 2.73333 17.4533 2.776 17.496C2.85067 17.5707 3 17.608 3.224 17.608C3.32 17.608 3.45867 17.5973 3.64 17.576C3.82133 17.5653 3.928 17.56 3.96 17.56C4.14133 17.56 4.19467 17.496 4.12 17.368C4.09867 17.336 3.99733 17.32 3.816 17.32C3.41067 17.32 3.192 17.3147 3.16 17.304C3.05333 17.2613 3.016 17.2027 3.048 17.128C3.08 17.064 3.13867 17.0107 3.224 16.968C3.32 16.9253 3.42667 16.904 3.544 16.904C3.68267 16.904 3.82667 16.936 3.976 17C4.06133 17.032 4.184 17.0587 4.344 17.08C4.51467 17.1013 4.64267 17.128 4.728 17.16C4.94133 17.2453 5.176 17.304 5.432 17.336C5.61333 17.368 5.784 17.48 5.944 17.672C6.008 17.7467 6.104 17.8267 6.232 17.912C6.37067 18.008 6.46133 18.0773 6.504 18.12C6.58933 18.2053 6.616 18.2907 6.584 18.376C6.56267 18.4613 6.49867 18.5307 6.392 18.584C6.30667 18.6267 6.21067 18.648 6.104 18.648C5.98667 18.648 5.848 18.6213 5.688 18.568C5.25067 18.4187 4.75467 18.3547 4.2 18.376C4.06133 18.3867 3.84267 18.3867 3.544 18.376C3.256 18.3653 3.03733 18.3653 2.888 18.376C2.504 18.3973 2.21067 18.408 2.008 18.408C1.95467 18.408 1.832 18.424 1.64 18.456C1.448 18.4987 1.304 18.5093 1.208 18.488ZM4.616 3.848C4.616 3.85867 4.61067 3.91733 4.6 4.024C4.58933 4.13067 4.584 4.22667 4.584 4.312C4.584 4.39733 4.6 4.45067 4.632 4.472C4.68533 4.504 4.73333 4.504 4.776 4.472C4.81867 4.42933 4.84533 4.36533 4.856 4.28C4.87733 4.19467 4.888 4.12533 4.888 4.072C4.89867 4.008 4.904 3.96 4.904 3.928C4.904 3.896 4.90933 3.84267 4.92 3.768C4.93067 3.69333 4.936 3.62933 4.936 3.576C4.936 3.52267 4.93067 3.464 4.92 3.4C4.92 3.336 4.904 3.288 4.872 3.256C4.84 3.224 4.792 3.208 4.728 3.208C4.65333 3.208 4.616 3.42133 4.616 3.848ZM13.9019 14.936C13.5925 14.5947 13.4379 14.3707 13.4379 14.264C13.4379 14.2213 13.4432 14.184 13.4539 14.152C13.4752 14.1093 13.5019 14.072 13.5339 14.04C13.5659 13.9973 13.5925 13.96 13.6139 13.928C13.6459 13.896 13.6885 13.864 13.7419 13.832C13.8059 13.7893 13.8485 13.7573 13.8699 13.736C13.9019 13.7147 13.9499 13.6827 14.0139 13.64C14.0779 13.5973 14.1152 13.5707 14.1259 13.56C14.8939 13.0373 15.4645 12.632 15.8379 12.344C15.9019 12.2907 15.9605 12.216 16.0139 12.12C16.0779 12.0133 16.1205 11.9493 16.1419 11.928C16.3979 11.64 16.6539 11.3733 16.9099 11.128C17.1659 10.872 17.3632 10.648 17.5019 10.456C17.5232 10.424 17.5925 10.3333 17.7099 10.184C17.8272 10.0347 17.9125 9.90667 17.9659 9.8C18.0192 9.69333 18.0459 9.58133 18.0459 9.464C18.0459 9.34667 18.0352 9.21333 18.0139 9.064C18.0032 8.904 17.9552 8.73867 17.8699 8.568C17.7952 8.38667 17.6992 8.296 17.5819 8.296C17.5499 8.296 17.5232 8.30133 17.5019 8.312C17.4805 8.32267 17.4485 8.34933 17.4059 8.392C17.3739 8.424 17.3205 8.456 17.2459 8.488C17.1499 8.53067 17.0432 8.62667 16.9259 8.776C16.8192 8.92533 16.7285 9 16.6539 9C16.5792 9 16.5419 8.95733 16.5419 8.872C16.5419 8.85067 16.5739 8.808 16.6379 8.744C16.7019 8.66933 16.7179 8.616 16.6859 8.584C16.6645 8.552 16.6645 8.52 16.6859 8.488C16.7072 8.44533 16.7445 8.40267 16.7979 8.36C16.8512 8.31733 16.9045 8.28 16.9579 8.248C17.0219 8.216 17.0805 8.184 17.1339 8.152C17.1979 8.10933 17.2352 8.08267 17.2459 8.072C17.2885 8.04 17.2672 8.00267 17.1819 7.96C17.1499 7.94933 17.1179 7.944 17.0859 7.944C17.0432 7.944 16.8992 7.976 16.6539 8.04C16.4085 8.09333 16.2645 8.13067 16.2219 8.152C15.9339 8.30133 15.7899 8.44 15.7899 8.568C15.8432 8.78133 15.8699 8.90933 15.8699 8.952C15.8699 9.112 15.8325 9.192 15.7579 9.192C15.6299 9.192 15.5392 9.11733 15.4859 8.968C15.4325 8.81867 15.3952 8.744 15.3739 8.744C15.3099 8.744 15.2245 8.82933 15.1179 9C15.0219 9.17067 14.9472 9.256 14.8939 9.256C14.8512 9.256 14.8139 9.24 14.7819 9.208C14.7499 9.16533 14.7339 9.128 14.7339 9.096C14.7339 8.62667 14.8032 8.33867 14.9419 8.232C15.0272 8.168 15.1125 8.104 15.1979 8.04C15.2832 7.96533 15.3419 7.912 15.3739 7.88C15.4165 7.83733 15.4592 7.80533 15.5019 7.784C15.5445 7.76267 15.5819 7.752 15.6139 7.752C15.7632 7.752 15.8965 7.70933 16.0139 7.624C16.0352 7.60267 16.0885 7.58133 16.1739 7.56C16.2592 7.528 16.3179 7.496 16.3499 7.464C16.4885 7.336 16.7232 7.272 17.0539 7.272C17.2352 7.272 17.4219 7.30933 17.6139 7.384C17.8059 7.448 17.9765 7.48 18.1259 7.48C18.3179 7.48 18.4779 7.464 18.6059 7.432C18.7445 7.38933 18.8832 7.368 19.0219 7.368C19.3205 7.368 19.5765 7.47467 19.7899 7.688C20.0779 7.976 20.2219 8.22667 20.2219 8.44C20.2219 8.93067 20.1472 9.352 19.9979 9.704C19.9019 9.93867 19.5659 10.5093 18.9899 11.416C18.8725 11.5973 18.7392 11.7733 18.5899 11.944C18.4512 12.1147 18.3125 12.2693 18.1739 12.408C18.0352 12.5467 17.8965 12.68 17.7579 12.808C17.6299 12.936 17.5072 13.048 17.3899 13.144C17.2725 13.24 17.1712 13.32 17.0859 13.384C17.0005 13.448 16.9205 13.5067 16.8459 13.56L16.7499 13.624C16.3339 13.976 16.1259 14.184 16.1259 14.248C16.1259 14.408 16.2699 14.488 16.5579 14.488C16.7285 14.488 16.9205 14.472 17.1339 14.44C17.3579 14.3973 17.5392 14.376 17.6779 14.376C17.8059 14.376 17.9339 14.36 18.0619 14.328C18.1899 14.2853 18.2859 14.264 18.3499 14.264C18.4779 14.264 18.7445 14.184 19.1499 14.024C19.2032 14.0027 19.2565 13.992 19.3099 13.992C19.3632 13.9813 19.4005 13.9707 19.4219 13.96C19.5072 13.9173 19.6139 13.8587 19.7419 13.784C19.8805 13.7093 19.9552 13.672 19.9659 13.672C20.0085 13.6507 20.0459 13.6293 20.0779 13.608C20.1205 13.576 20.1525 13.5493 20.1739 13.528C20.1952 13.5067 20.2219 13.4907 20.2539 13.48C20.2859 13.4587 20.3125 13.448 20.3339 13.448C20.4192 13.448 20.4619 13.592 20.4619 13.88C20.4619 13.9653 20.3979 14.0613 20.2699 14.168C20.2059 14.232 20.0192 14.3173 19.7099 14.424C19.3579 14.5627 19.0219 14.7067 18.7019 14.856C18.3925 14.9947 18.1685 15.096 18.0299 15.16C17.8912 15.224 17.7952 15.2613 17.7419 15.272C17.5819 15.2933 17.2139 15.304 16.6379 15.304C16.6165 15.304 16.5792 15.2987 16.5259 15.288C16.4725 15.2773 16.4352 15.272 16.4139 15.272C16.3499 15.272 16.2539 15.272 16.1259 15.272C16.0085 15.2827 15.9179 15.288 15.8539 15.288C15.6192 15.288 15.3685 15.256 15.1019 15.192C14.8459 15.1387 14.6219 15.112 14.4299 15.112C14.1952 15.112 14.0192 15.0533 13.9019 14.936ZM14.5099 14.2C14.5099 14.2427 14.5312 14.2907 14.5739 14.344C14.6272 14.3867 14.6912 14.408 14.7659 14.408C14.8085 14.408 14.8885 14.3333 15.0059 14.184C15.0379 14.1413 15.1232 14.072 15.2619 13.976C15.4112 13.8693 15.5019 13.8 15.5339 13.768C16.8032 12.616 17.5765 11.9013 17.8539 11.624C17.9819 11.496 18.0779 11.3947 18.1419 11.32C18.2059 11.2453 18.2379 11.1973 18.2379 11.176C18.2485 11.144 18.2539 11.1227 18.2539 11.112C18.2645 11.0907 18.2859 11.0693 18.3179 11.048C18.3499 11.016 18.4085 10.968 18.4939 10.904C18.5899 10.8293 18.6859 10.7227 18.7819 10.584C18.8779 10.4453 18.9259 10.3387 18.9259 10.264C18.9259 10.2427 18.9045 10.2213 18.8619 10.2C18.8192 10.1787 18.7979 10.152 18.7979 10.12C18.7979 10.0773 18.8352 10.04 18.9099 10.008C18.9845 9.96533 19.0219 9.928 19.0219 9.896C19.0219 9.864 19.0112 9.81067 18.9899 9.736C18.9685 9.66133 18.9579 9.608 18.9579 9.576V9.48C18.9685 9.416 18.9739 9.352 18.9739 9.288C18.9739 9.21333 18.9739 9.13333 18.9739 9.048C18.9739 8.96267 18.9685 8.888 18.9579 8.824C18.9365 8.70667 18.8832 8.57333 18.7979 8.424C18.7125 8.264 18.6272 8.184 18.5419 8.184C18.4672 8.184 18.4299 8.232 18.4299 8.328L18.5419 8.632C18.6165 8.824 18.6539 9.05333 18.6539 9.32C18.6539 9.352 18.6432 9.432 18.6219 9.56C18.6005 9.67733 18.5632 9.832 18.5099 10.024C18.4565 10.2053 18.3979 10.344 18.3339 10.44C17.9605 10.9733 17.7632 11.2507 17.7419 11.272L17.5979 11.416C17.5019 11.5227 17.4059 11.6293 17.3099 11.736C17.2139 11.832 17.1392 11.9013 17.0859 11.944C16.9792 12.0187 16.8725 12.104 16.7659 12.2C16.6699 12.296 16.5579 12.4133 16.4299 12.552C16.3019 12.6907 16.2059 12.792 16.1419 12.856C16.0245 12.984 15.8005 13.176 15.4699 13.432C15.1499 13.6773 14.9685 13.8213 14.9259 13.864C14.9045 13.8853 14.8565 13.9227 14.7819 13.976C14.7179 14.0187 14.6539 14.0613 14.5899 14.104C14.5365 14.136 14.5099 14.168 14.5099 14.2ZM16.2059 9.448C16.2059 9.40533 16.1792 9.33067 16.1259 9.224C16.0832 9.11733 16.0619 9.032 16.0619 8.968C16.0619 8.872 16.0832 8.792 16.1259 8.728C16.1685 8.65333 16.2165 8.616 16.2699 8.616C16.3445 8.616 16.3819 8.648 16.3819 8.712C16.3819 8.73333 16.3765 8.77067 16.3659 8.824C16.3659 8.86667 16.3659 8.89867 16.3659 8.92C16.3659 9.03733 16.4085 9.13333 16.4939 9.208C16.5899 9.272 16.6379 9.32533 16.6379 9.368C16.6379 9.38933 16.5952 9.42667 16.5099 9.48C16.4245 9.53333 16.3552 9.56 16.3019 9.56C16.2379 9.56 16.2059 9.52267 16.2059 9.448ZM19.4859 8.184C19.4325 8.19467 19.3952 8.22133 19.3739 8.264C19.3312 8.40267 19.3739 8.49867 19.5019 8.552C19.5765 8.584 19.6139 8.53067 19.6139 8.392C19.6139 8.25333 19.5712 8.184 19.4859 8.184ZM26.5577 18.104C26.3337 18.0613 26.1631 17.9707 26.0457 17.832C25.9284 17.704 25.9497 17.5547 26.1097 17.384C26.3337 17.2027 26.6644 17.112 27.1017 17.112C27.1657 17.112 27.2671 17.112 27.4057 17.112C27.5337 17.1227 27.6244 17.128 27.6777 17.128C28.1151 17.16 28.3978 17.1653 28.5258 17.144C28.6111 17.1227 28.7231 17.0747 28.8618 17C29.0004 16.9253 29.1071 16.8827 29.1818 16.872C29.2778 16.8507 29.4484 16.8613 29.6938 16.904C29.9498 16.9573 30.1258 16.984 30.2218 16.984C30.4138 16.984 30.5418 16.9307 30.6058 16.824C30.6591 16.8027 30.6591 16.696 30.6058 16.504C30.5631 16.312 30.5418 16.2 30.5418 16.168C30.5418 16.008 30.5311 15.7467 30.5098 15.384C30.4991 15.2987 30.4991 15.1813 30.5098 15.032C30.5311 14.8933 30.5418 14.7973 30.5418 14.744C30.5418 14.648 30.4778 14.552 30.3498 14.456C30.2324 14.36 30.1631 14.2853 30.1418 14.232C30.1204 14.168 30.1258 14.0667 30.1578 13.928C30.1898 13.7787 30.2004 13.6773 30.1898 13.624C30.1578 13.3787 30.1418 13.144 30.1418 12.92C30.1418 12.3547 30.1631 11.928 30.2057 11.64C30.2378 11.448 30.2644 11.1867 30.2858 10.856C30.3178 10.5147 30.3444 10.2747 30.3658 10.136C30.3871 9.96533 30.4084 9.784 30.4298 9.592C30.4618 9.38933 30.4938 9.17067 30.5258 8.936C30.5578 8.70133 30.5844 8.51467 30.6058 8.376C30.6271 8.216 30.6484 7.97067 30.6698 7.64C30.6911 7.29867 30.7124 7.048 30.7338 6.888C30.7551 6.73867 30.7711 6.488 30.7818 6.136C30.8031 5.77333 30.8351 5.50133 30.8778 5.32C31.0058 4.65867 31.1231 4.15733 31.2298 3.816C31.2404 3.784 31.2618 3.688 31.2938 3.528C31.3364 3.368 31.3738 3.25067 31.4058 3.176C31.5231 2.90933 31.5284 2.67467 31.4218 2.472C31.3151 2.26933 31.2244 2.168 31.1498 2.168C31.0751 2.168 30.9844 2.22133 30.8778 2.328C30.7604 2.43467 30.5311 2.52533 30.1898 2.6C29.8484 2.67467 29.5604 2.712 29.3258 2.712C29.2298 2.712 29.1178 2.728 28.9898 2.76C28.8724 2.792 28.7924 2.81333 28.7498 2.824C28.5684 2.856 28.4564 2.79733 28.4138 2.648C28.3818 2.488 28.4084 2.36 28.4938 2.264C28.5578 2.18933 28.6271 2.13067 28.7018 2.088C28.7764 2.03467 28.8244 2.00267 28.8458 1.992C28.8778 1.97067 28.9578 1.94933 29.0858 1.928C29.2244 1.896 29.3098 1.87467 29.3418 1.864C29.4698 1.832 29.6511 1.77333 29.8858 1.688C30.1204 1.592 30.2644 1.53867 30.3178 1.528C30.3818 1.50667 30.5258 1.44267 30.7498 1.336C30.9844 1.22933 31.1711 1.16533 31.3098 1.144C31.4804 1.12267 31.6618 1.07467 31.8538 0.999999C32.1418 0.903999 32.3018 0.855999 32.3338 0.855999C32.6324 0.855999 32.8191 0.909333 32.8938 1.016C32.9364 1.048 32.9471 1.096 32.9258 1.16C32.9151 1.21333 32.9044 1.256 32.8938 1.288C32.8831 1.30933 32.8564 1.352 32.8138 1.416C32.7711 1.46933 32.7444 1.512 32.7338 1.544C32.7124 1.59733 32.6911 1.69333 32.6698 1.832C32.6484 1.96 32.6111 2.056 32.5578 2.12C32.5364 2.152 32.4938 2.19467 32.4298 2.248C32.3764 2.30133 32.3391 2.344 32.3177 2.376C32.3071 2.39733 32.2858 2.44 32.2538 2.504C32.2324 2.568 32.2378 2.62133 32.2698 2.664C32.3444 2.888 32.3231 3.09067 32.2057 3.272C32.1524 3.336 32.1364 3.44267 32.1578 3.592C32.1791 3.73067 32.1791 3.832 32.1578 3.896C32.1258 4.00267 32.0564 4.248 31.9498 4.632C31.8431 5.00533 31.7738 5.29333 31.7418 5.496C31.6244 6.2 31.5658 6.68 31.5658 6.936C31.5658 7.14933 31.5391 7.45333 31.4858 7.848C31.4324 8.24267 31.4004 8.49333 31.3898 8.6C31.3684 8.792 31.3578 9.08 31.3578 9.464C31.3578 9.496 31.3684 9.58667 31.3898 9.736C31.4111 9.88533 31.4111 9.976 31.3898 10.008C31.3471 10.2107 31.3631 10.6693 31.4378 11.384C31.5018 11.9067 31.5871 12.408 31.6938 12.888C31.7258 13.0373 31.7418 13.2667 31.7418 13.576C31.7418 13.6613 31.7738 13.7947 31.8378 13.976C31.9124 14.1467 31.9444 14.2747 31.9338 14.36C31.9231 14.552 31.9178 14.8347 31.9178 15.208C31.9178 16.1467 31.8804 16.808 31.8058 17.192C31.8058 17.2027 31.7951 17.2507 31.7738 17.336C31.7631 17.432 31.7524 17.5013 31.7418 17.544C31.7311 17.5973 31.7151 17.672 31.6938 17.768C31.6724 17.864 31.6458 17.9387 31.6138 17.992C31.5924 18.0453 31.5604 18.0987 31.5178 18.152C31.4858 18.216 31.4431 18.2533 31.3898 18.264C31.3471 18.2853 31.2938 18.2907 31.2298 18.28C31.1551 18.2587 31.1071 18.2 31.0858 18.104C31.0751 18.008 31.0431 17.96 30.9898 17.96C30.9258 17.96 30.8724 17.976 30.8298 18.008C30.7978 18.0507 30.7658 18.1093 30.7338 18.184C30.7018 18.2587 30.6751 18.312 30.6538 18.344C30.4724 18.6 30.1258 18.728 29.6138 18.728C29.4538 18.728 29.2991 18.712 29.1497 18.68C29.0431 18.6587 28.9738 18.616 28.9418 18.552C28.9098 18.488 28.9311 18.424 29.0058 18.36C29.0484 18.328 29.1338 18.3067 29.2618 18.296C29.4004 18.2853 29.4804 18.2533 29.5018 18.2C29.5231 18.136 29.4858 18.088 29.3898 18.056C29.2938 18.0347 29.1658 18.024 29.0058 18.024C28.6538 18.024 28.3818 18.0507 28.1898 18.104C27.8057 18.1893 27.5444 18.2213 27.4057 18.2C27.2991 18.1787 27.1551 18.1573 26.9737 18.136C26.7817 18.1253 26.6431 18.1147 26.5577 18.104ZM30.2698 18.056C30.2804 17.9813 30.2484 17.944 30.1738 17.944C30.0991 17.944 30.0404 17.992 29.9978 18.088C29.9764 18.1627 30.0084 18.2 30.0938 18.2C30.2004 18.2 30.2591 18.152 30.2698 18.056ZM31.5658 1.848C31.5231 1.85867 31.4751 1.88533 31.4218 1.928C31.3684 1.97067 31.3684 2.008 31.4218 2.04C31.5071 2.09333 31.5818 2.072 31.6458 1.976C31.6991 1.89067 31.6831 1.848 31.5978 1.848C31.5871 1.848 31.5764 1.848 31.5658 1.848Z" fill="white"/>
</svg>
