<svg width="26" height="14" viewBox="0 0 26 14" fill="none" xmlns="http://www.w3.org/2000/svg">
<path d="M1.156 13.616C0.916 13.552 0.96 13.4 1.288 13.16C1.408 13.072 1.472 13.02 1.48 13.004C1.504 12.972 1.516 12.936 1.516 12.896C1.524 12.864 1.524 12.82 1.516 12.764C1.508 12.708 1.504 12.668 1.504 12.644V11.972C1.528 11.34 1.544 10.992 1.552 10.928C1.56 10.872 1.56 10.788 1.552 10.676C1.544 10.556 1.544 10.464 1.552 10.4C1.56 10.352 1.584 10.26 1.624 10.124C1.664 9.988 1.688 9.884 1.696 9.812C1.728 9.468 1.796 9.104 1.9 8.72C1.94 8.56 1.98 8.336 2.02 8.048C2.068 7.752 2.104 7.544 2.128 7.424C2.2 7.112 2.284 6.656 2.38 6.056C2.484 5.456 2.544 5.12 2.56 5.048C2.568 5.024 2.588 4.94 2.62 4.796C2.66 4.644 2.68 4.524 2.68 4.436C2.68 4.284 2.708 4.088 2.764 3.848C2.868 3.504 2.916 3.28 2.908 3.176C2.892 2.936 2.956 2.716 3.1 2.516C3.14 2.46 3.168 2.408 3.184 2.36C3.2 2.312 3.212 2.256 3.22 2.192C3.228 2.12 3.236 2.064 3.244 2.024C3.252 1.976 3.276 1.928 3.316 1.88C3.356 1.824 3.388 1.784 3.412 1.76C3.436 1.728 3.484 1.68 3.556 1.616C3.628 1.552 3.668 1.516 3.676 1.508C3.82 1.372 3.992 1.32 4.192 1.352C4.28 1.368 4.4 1.36 4.552 1.328C4.712 1.288 4.824 1.268 4.888 1.268C4.952 1.26 4.988 1.26 4.996 1.268C5.468 1.268 5.828 1.312 6.076 1.4C6.148 1.424 6.264 1.464 6.424 1.52C6.592 1.568 6.736 1.616 6.856 1.664C6.984 1.712 7.1 1.768 7.204 1.832C7.332 1.912 7.396 2.016 7.396 2.144C7.396 2.304 7.284 2.36 7.06 2.312C6.7 2.232 6.236 2.148 5.668 2.06C5.532 2.036 5.34 2.032 5.092 2.048C4.852 2.064 4.664 2.064 4.528 2.048C4.416 2.032 4.34 2.06 4.3 2.132C4.268 2.196 4.256 2.296 4.264 2.432C4.28 2.56 4.284 2.636 4.276 2.66C4.244 2.804 4.212 3.008 4.18 3.272C4.148 3.536 4.12 3.724 4.096 3.836C4.088 3.876 4.06 3.956 4.012 4.076C3.964 4.196 3.94 4.284 3.94 4.34C3.94 4.484 3.9 4.692 3.82 4.964C3.788 5.084 3.756 5.26 3.724 5.492C3.7 5.724 3.668 5.896 3.628 6.008C3.492 6.464 3.384 6.9 3.304 7.316C3.256 7.596 3.156 7.996 3.004 8.516C2.852 9.036 2.752 9.412 2.704 9.644C2.6 10.132 2.524 10.52 2.476 10.808C2.452 10.936 2.424 11.124 2.392 11.372C2.368 11.62 2.344 11.804 2.32 11.924C2.288 12.172 2.276 12.336 2.284 12.416C2.284 12.44 2.28 12.484 2.272 12.548C2.272 12.62 2.272 12.684 2.272 12.74C2.28 12.796 2.3 12.84 2.332 12.872C2.388 12.928 2.5 12.956 2.668 12.956C2.74 12.956 2.844 12.948 2.98 12.932C3.116 12.924 3.196 12.92 3.22 12.92C3.356 12.92 3.396 12.872 3.34 12.776C3.324 12.752 3.248 12.74 3.112 12.74C2.808 12.74 2.644 12.736 2.62 12.728C2.54 12.696 2.512 12.652 2.536 12.596C2.56 12.548 2.604 12.508 2.668 12.476C2.74 12.444 2.82 12.428 2.908 12.428C3.012 12.428 3.12 12.452 3.232 12.5C3.296 12.524 3.388 12.544 3.508 12.56C3.636 12.576 3.732 12.596 3.796 12.62C3.956 12.684 4.132 12.728 4.324 12.752C4.46 12.776 4.588 12.86 4.708 13.004C4.756 13.06 4.828 13.12 4.924 13.184C5.028 13.256 5.096 13.308 5.128 13.34C5.192 13.404 5.212 13.468 5.188 13.532C5.172 13.596 5.124 13.648 5.044 13.688C4.98 13.72 4.908 13.736 4.828 13.736C4.74 13.736 4.636 13.716 4.516 13.676C4.188 13.564 3.816 13.516 3.4 13.532C3.296 13.54 3.132 13.54 2.908 13.532C2.692 13.524 2.528 13.524 2.416 13.532C2.128 13.548 1.908 13.556 1.756 13.556C1.716 13.556 1.624 13.568 1.48 13.592C1.336 13.624 1.228 13.632 1.156 13.616ZM3.712 2.636C3.712 2.644 3.708 2.688 3.7 2.768C3.692 2.848 3.688 2.92 3.688 2.984C3.688 3.048 3.7 3.088 3.724 3.104C3.764 3.128 3.8 3.128 3.832 3.104C3.864 3.072 3.884 3.024 3.892 2.96C3.908 2.896 3.916 2.844 3.916 2.804C3.924 2.756 3.928 2.72 3.928 2.696C3.928 2.672 3.932 2.632 3.94 2.576C3.948 2.52 3.952 2.472 3.952 2.432C3.952 2.392 3.948 2.348 3.94 2.3C3.94 2.252 3.928 2.216 3.904 2.192C3.88 2.168 3.844 2.156 3.796 2.156C3.74 2.156 3.712 2.316 3.712 2.636ZM8.84041 11.468C8.67241 11.356 8.58841 11.236 8.58841 11.108C8.58841 11.06 8.61241 10.992 8.66041 10.904C8.70841 10.816 8.73641 10.76 8.74441 10.736C8.80841 10.568 9.02841 10.352 9.40441 10.088C9.45241 10.056 9.50041 10 9.54841 9.92C9.58841 9.832 9.62441 9.776 9.65641 9.752C9.68841 9.728 9.80041 9.716 9.99241 9.716L10.0284 9.704C10.0524 9.696 10.0724 9.692 10.0884 9.692C10.1124 9.692 10.1364 9.704 10.1604 9.728C10.1764 9.744 10.1804 9.764 10.1724 9.788C10.1644 9.804 10.1404 9.82 10.1004 9.836C10.0524 9.852 10.0004 9.884 9.94441 9.932C9.88041 9.972 9.82841 10.028 9.78841 10.1C9.69241 10.284 9.64441 10.384 9.64441 10.4V10.592C9.64441 10.6 9.62841 10.616 9.59641 10.64C9.55641 10.664 9.54441 10.692 9.56041 10.724C9.57641 10.756 9.61241 10.776 9.66841 10.784C9.71641 10.784 9.74841 10.788 9.76441 10.796C9.83641 10.828 9.89641 10.892 9.94441 10.988C9.98441 11.084 10.0324 11.152 10.0884 11.192C10.1204 11.216 10.2204 11.26 10.3884 11.324C10.5564 11.388 10.6604 11.42 10.7004 11.42C10.7724 11.42 10.8084 11.388 10.8084 11.324C10.8084 11.276 10.7764 11.252 10.7124 11.252C10.6884 11.252 10.6564 11.256 10.6164 11.264C10.5844 11.28 10.5524 11.288 10.5204 11.288C10.5044 11.288 10.4604 11.252 10.3884 11.18C10.3804 11.172 10.3564 11.152 10.3164 11.12C10.2844 11.096 10.2604 11.076 10.2444 11.06C10.2284 11.044 10.2084 11.02 10.1844 10.988C10.1604 10.956 10.1444 10.92 10.1364 10.88C10.1204 10.84 10.1124 10.792 10.1124 10.736C10.1124 10.704 10.1204 10.676 10.1364 10.652C10.1444 10.62 10.1684 10.588 10.2084 10.556C10.2404 10.524 10.2644 10.504 10.2804 10.496C10.2964 10.48 10.3324 10.456 10.3884 10.424C10.4444 10.392 10.4804 10.372 10.4964 10.364C10.6724 10.26 10.8484 10.208 11.0244 10.208C11.0404 10.208 11.0644 10.196 11.0964 10.172C11.1364 10.148 11.1684 10.136 11.1924 10.136C11.2404 10.136 11.2644 10.148 11.2644 10.172C11.2644 10.204 11.2484 10.232 11.2164 10.256C11.1924 10.28 11.1524 10.304 11.0964 10.328C11.0404 10.352 11.0004 10.372 10.9764 10.388C10.7044 10.548 10.5684 10.66 10.5684 10.724C10.5684 10.764 10.6084 10.812 10.6884 10.868C10.7684 10.916 10.8644 10.968 10.9764 11.024C11.0884 11.088 11.1644 11.14 11.2044 11.18C11.3484 11.324 11.6404 11.396 12.0804 11.396C12.1684 11.396 12.3004 11.376 12.4764 11.336C12.6524 11.296 12.7484 11.276 12.7644 11.276C12.8764 11.268 13.0444 11.204 13.2684 11.084C13.4924 10.972 13.6684 10.916 13.7964 10.916C13.8124 10.916 13.8444 10.928 13.8924 10.952C13.9484 10.976 13.9884 10.988 14.0124 10.988C14.0924 10.988 14.1644 10.888 14.2284 10.688C14.2524 10.616 14.3244 10.536 14.4444 10.448C14.5724 10.352 14.6364 10.284 14.6364 10.244C14.6364 10.22 14.6204 10.188 14.5884 10.148C14.5644 10.1 14.5524 10.06 14.5524 10.028C14.5524 10.004 14.5764 9.948 14.6244 9.86C14.6804 9.764 14.7124 9.704 14.7204 9.68C14.8084 9.432 14.7244 9.244 14.4684 9.116C14.2204 8.988 13.8444 8.88 13.3404 8.792C13.2764 8.784 13.1804 8.776 13.0524 8.768C12.9324 8.76 12.8204 8.744 12.7164 8.72C12.6204 8.696 12.5124 8.648 12.3924 8.576C12.3764 8.568 12.3444 8.556 12.2964 8.54C12.2484 8.516 12.2084 8.496 12.1764 8.48C12.1524 8.464 12.1244 8.432 12.0924 8.384C12.0684 8.336 12.0564 8.276 12.0564 8.204C12.0564 8.012 12.2284 7.916 12.5724 7.916C12.8684 7.916 13.0444 7.888 13.1004 7.832C13.1324 7.768 13.1284 7.736 13.0884 7.736C13.0484 7.736 13.0004 7.744 12.9444 7.76C12.8884 7.768 12.8204 7.772 12.7404 7.772C12.6764 7.772 12.6324 7.752 12.6084 7.712C12.5844 7.664 12.5844 7.62 12.6084 7.58C12.6404 7.54 12.6884 7.52 12.7524 7.52C12.8244 7.52 12.9004 7.504 12.9804 7.472C13.0684 7.44 13.1404 7.424 13.1964 7.424L13.2924 7.436C13.3564 7.444 13.4164 7.448 13.4724 7.448C13.5924 7.448 13.6724 7.448 13.7124 7.448C13.7524 7.44 13.8244 7.42 13.9284 7.388C14.0404 7.348 14.1684 7.284 14.3124 7.196C14.4564 7.1 14.6564 6.968 14.9124 6.8C14.9524 6.776 15.0244 6.736 15.1284 6.68C15.2404 6.616 15.3244 6.564 15.3804 6.524C15.4364 6.484 15.4884 6.432 15.5364 6.368C15.5924 6.296 15.6204 6.224 15.6204 6.152C15.6204 6.008 15.6124 5.892 15.5964 5.804C15.5804 5.708 15.5644 5.648 15.5484 5.624C15.5324 5.6 15.5044 5.572 15.4644 5.54C15.4244 5.508 15.4004 5.488 15.3924 5.48V5.492C15.3684 5.492 15.3324 5.46 15.2844 5.396C15.2364 5.332 15.1484 5.268 15.0204 5.204C14.8924 5.14 14.7164 5.108 14.4924 5.108C14.4284 5.108 14.3604 5.124 14.2884 5.156C14.2164 5.18 14.1644 5.192 14.1324 5.192C14.0044 5.192 13.9044 5.252 13.8324 5.372C13.7604 5.484 13.6644 5.54 13.5444 5.54C13.5364 5.54 13.5284 5.536 13.5204 5.528C13.5204 5.52 13.5204 5.512 13.5204 5.504C13.5204 5.496 13.5164 5.488 13.5084 5.48C13.5084 5.464 13.4924 5.452 13.4604 5.444C13.4364 5.428 13.4004 5.416 13.3524 5.408C13.2644 5.408 13.2204 5.448 13.2204 5.528L13.2684 5.552C13.2924 5.568 13.3044 5.6 13.3044 5.648C13.3044 5.72 13.2724 5.756 13.2084 5.756C13.1524 5.756 13.0844 5.708 13.0044 5.612C12.9244 5.516 12.8844 5.436 12.8844 5.372C12.8844 5.308 12.9124 5.256 12.9684 5.216C13.0004 5.192 13.0524 5.128 13.1244 5.024C13.1964 4.92 13.2524 4.868 13.2924 4.868C13.5324 4.868 13.6484 4.836 13.6404 4.772C13.6324 4.764 13.6244 4.752 13.6164 4.736C13.5844 4.696 13.5324 4.676 13.4604 4.676C13.4044 4.676 13.3204 4.696 13.2084 4.736C13.0964 4.776 13.0284 4.796 13.0044 4.796C12.9964 4.796 12.9724 4.792 12.9324 4.784C12.9004 4.776 12.8724 4.772 12.8484 4.772C12.8004 4.772 12.7764 4.804 12.7764 4.868C12.7764 4.876 12.7804 4.888 12.7884 4.904C12.7964 4.92 12.8004 4.936 12.8004 4.952C12.8004 5.024 12.7564 5.06 12.6684 5.06C12.5164 5.06 12.4364 4.992 12.4284 4.856C12.4284 4.84 12.4204 4.812 12.4044 4.772C12.3884 4.724 12.3804 4.68 12.3804 4.64C12.3804 4.584 12.4324 4.532 12.5364 4.484C12.6404 4.428 12.7244 4.4 12.7884 4.4C13.0764 4.4 13.3564 4.424 13.6284 4.472C13.7644 4.496 13.9884 4.508 14.3004 4.508C14.4044 4.508 14.5204 4.524 14.6484 4.556C14.7844 4.588 14.9084 4.604 15.0204 4.604C15.4604 4.604 15.8724 4.74 16.2564 5.012C16.6404 5.276 16.8324 5.62 16.8324 6.044C16.8324 6.148 16.7844 6.28 16.6884 6.44C16.6004 6.592 16.5044 6.72 16.4004 6.824C16.3924 6.832 16.3044 6.9 16.1364 7.028C15.9684 7.156 15.8724 7.252 15.8484 7.316C15.8404 7.332 15.8284 7.36 15.8124 7.4C15.7964 7.44 15.7844 7.464 15.7764 7.472C15.7764 7.48 15.7684 7.5 15.7524 7.532C15.7364 7.564 15.7244 7.588 15.7164 7.604C15.7084 7.612 15.6924 7.636 15.6684 7.676C15.6444 7.716 15.6204 7.748 15.5964 7.772C15.5804 7.796 15.5484 7.836 15.5004 7.892C15.4604 7.948 15.4164 8.004 15.3684 8.06C15.3284 8.116 15.2764 8.188 15.2124 8.276C15.1724 8.332 15.1204 8.392 15.0564 8.456C15.0004 8.512 14.9564 8.56 14.9244 8.6C14.9004 8.632 14.8884 8.664 14.8884 8.696C14.8884 8.712 14.9324 8.752 15.0204 8.816C15.1164 8.88 15.2284 8.972 15.3564 9.092C15.4844 9.212 15.5884 9.336 15.6684 9.464C15.8284 9.728 15.9084 9.992 15.9084 10.256C15.9084 10.336 15.8884 10.412 15.8484 10.484C15.8164 10.556 15.7564 10.628 15.6684 10.7C15.5884 10.772 15.5124 10.832 15.4404 10.88C15.3684 10.928 15.2644 10.984 15.1284 11.048C14.9924 11.112 14.8844 11.16 14.8044 11.192C14.7324 11.224 14.6204 11.268 14.4684 11.324C14.3164 11.388 14.2204 11.428 14.1804 11.444C13.1884 11.86 12.4324 12.068 11.9124 12.068C11.8884 12.068 11.8404 12.064 11.7684 12.056C11.6964 12.056 11.6444 12.056 11.6124 12.056C11.5804 12.056 11.4964 12.064 11.3604 12.08C11.2244 12.104 11.0524 12.116 10.8444 12.116C10.5644 12.116 10.2204 12.048 9.81241 11.912C9.39641 11.784 9.07241 11.636 8.84041 11.468ZM9.32041 10.88C9.28841 10.824 9.25641 10.796 9.22441 10.796C9.19241 10.796 9.14841 10.828 9.09241 10.892C9.03641 10.948 9.00841 10.992 9.00841 11.024C9.00841 11.056 9.01641 11.076 9.03241 11.084C9.04841 11.1 9.07241 11.112 9.10441 11.12C9.13641 11.128 9.16041 11.14 9.17641 11.156C9.24041 11.212 9.28441 11.244 9.30841 11.252C9.32441 11.268 9.34041 11.276 9.35641 11.276C9.36441 11.284 9.39641 11.296 9.45241 11.312C9.50041 11.328 9.56441 11.352 9.64441 11.384C9.70041 11.408 9.73241 11.42 9.74041 11.42C9.74041 11.428 9.75641 11.424 9.78841 11.408C9.78841 11.376 9.74841 11.34 9.66841 11.3C9.58841 11.252 9.52041 11.184 9.46441 11.096C9.40041 11.008 9.35241 10.936 9.32041 10.88ZM15.0204 10.376C15.0204 10.416 15.0484 10.436 15.1044 10.436C15.2324 10.436 15.3244 10.304 15.3804 10.04C15.3804 10.032 15.3804 10.02 15.3804 10.004C15.3884 9.988 15.3924 9.972 15.3924 9.956C15.4004 9.94 15.4044 9.924 15.4044 9.908C15.4044 9.892 15.4004 9.88 15.3924 9.872C15.3844 9.856 15.3724 9.848 15.3564 9.848C15.3244 9.848 15.3044 9.848 15.2964 9.848C15.2964 9.848 15.2844 9.852 15.2604 9.86C15.2364 9.86 15.2204 9.868 15.2124 9.884C15.2124 9.892 15.2084 9.908 15.2004 9.932C15.1924 9.948 15.1884 9.972 15.1884 10.004C15.1884 10.044 15.1604 10.108 15.1044 10.196C15.0484 10.284 15.0204 10.344 15.0204 10.376ZM16.3044 6.248C16.2004 6.248 16.1244 6.328 16.0764 6.488C16.0604 6.592 16.0764 6.648 16.1244 6.656C16.1884 6.656 16.2444 6.616 16.2924 6.536C16.3404 6.456 16.3644 6.384 16.3644 6.32C16.3644 6.272 16.3444 6.248 16.3044 6.248ZM14.9244 7.016C14.9164 7.024 14.8924 7.04 14.8524 7.064C14.8124 7.088 14.7804 7.112 14.7564 7.136C14.7324 7.152 14.7284 7.168 14.7444 7.184C14.7924 7.208 14.8284 7.212 14.8524 7.196C14.8764 7.172 14.9324 7.132 15.0204 7.076C15.1164 7.012 15.2084 6.964 15.2964 6.932C15.3444 6.916 15.3684 6.884 15.3684 6.836C15.3684 6.82 15.3604 6.812 15.3444 6.812C15.1444 6.812 15.0044 6.88 14.9244 7.016ZM14.8524 7.544C14.8284 7.6 14.8684 7.6 14.9724 7.544L15.1404 7.436C15.2284 7.372 15.2764 7.316 15.2844 7.268C15.2844 7.244 15.2484 7.24 15.1764 7.256C15.1604 7.256 15.1044 7.296 15.0084 7.376C14.9204 7.448 14.8684 7.504 14.8524 7.544ZM14.1804 8.204C14.1804 8.172 14.1604 8.152 14.1204 8.144C14.0804 8.128 14.0364 8.128 13.9884 8.144C13.9484 8.16 13.9284 8.184 13.9284 8.216C13.9284 8.272 13.9724 8.3 14.0604 8.3C14.1404 8.3 14.1804 8.268 14.1804 8.204ZM15.8604 5.564C15.8604 5.412 15.8324 5.336 15.7764 5.336C15.7204 5.336 15.6964 5.376 15.7044 5.456C15.7204 5.528 15.7444 5.576 15.7764 5.6C15.8324 5.6 15.8604 5.588 15.8604 5.564ZM14.8764 7.808C14.8444 7.808 14.8084 7.82 14.7684 7.844C14.7284 7.86 14.7084 7.88 14.7084 7.904C14.7084 7.96 14.7364 7.988 14.7924 7.988C14.8724 7.988 14.9124 7.952 14.9124 7.88L14.8764 7.808ZM13.2924 7.988C13.2444 7.988 13.2204 8.016 13.2204 8.072C13.2204 8.128 13.2444 8.156 13.2924 8.156C13.3484 8.156 13.3764 8.128 13.3764 8.072C13.3764 8.016 13.3484 7.988 13.2924 7.988ZM16.1724 5.588C16.1324 5.588 16.1124 5.608 16.1124 5.648C16.1124 5.704 16.1364 5.732 16.1844 5.732C16.2244 5.732 16.2444 5.712 16.2444 5.672V5.648C16.2364 5.64 16.2244 5.628 16.2084 5.612C16.2004 5.596 16.1884 5.588 16.1724 5.588ZM20.9417 13.328C20.7737 13.296 20.6457 13.228 20.5577 13.124C20.4697 13.028 20.4857 12.916 20.6057 12.788C20.7737 12.652 21.0217 12.584 21.3497 12.584C21.3977 12.584 21.4737 12.584 21.5777 12.584C21.6737 12.592 21.7417 12.596 21.7817 12.596C22.1098 12.62 22.3218 12.624 22.4178 12.608C22.4818 12.592 22.5658 12.556 22.6698 12.5C22.7738 12.444 22.8538 12.412 22.9098 12.404C22.9818 12.388 23.1098 12.396 23.2938 12.428C23.4858 12.468 23.6178 12.488 23.6898 12.488C23.8338 12.488 23.9298 12.448 23.9778 12.368C24.0178 12.352 24.0178 12.272 23.9778 12.128C23.9458 11.984 23.9298 11.9 23.9298 11.876C23.9298 11.756 23.9218 11.56 23.9058 11.288C23.8978 11.224 23.8978 11.136 23.9058 11.024C23.9218 10.92 23.9298 10.848 23.9298 10.808C23.9298 10.736 23.8818 10.664 23.7858 10.592C23.6978 10.52 23.6458 10.464 23.6298 10.424C23.6138 10.376 23.6178 10.3 23.6418 10.196C23.6658 10.084 23.6738 10.008 23.6658 9.968C23.6418 9.784 23.6298 9.608 23.6298 9.44C23.6298 9.016 23.6458 8.696 23.6777 8.48C23.7018 8.336 23.7218 8.14 23.7378 7.892C23.7618 7.636 23.7818 7.456 23.7978 7.352C23.8138 7.224 23.8298 7.088 23.8458 6.944C23.8698 6.792 23.8938 6.628 23.9178 6.452C23.9418 6.276 23.9618 6.136 23.9778 6.032C23.9938 5.912 24.0098 5.728 24.0258 5.48C24.0418 5.224 24.0578 5.036 24.0738 4.916C24.0898 4.804 24.1018 4.616 24.1098 4.352C24.1258 4.08 24.1498 3.876 24.1818 3.74C24.2778 3.244 24.3658 2.868 24.4458 2.612C24.4538 2.588 24.4698 2.516 24.4938 2.396C24.5258 2.276 24.5538 2.188 24.5778 2.132C24.6658 1.932 24.6698 1.756 24.5898 1.604C24.5098 1.452 24.4418 1.376 24.3858 1.376C24.3298 1.376 24.2618 1.416 24.1818 1.496C24.0938 1.576 23.9218 1.644 23.6658 1.7C23.4098 1.756 23.1938 1.784 23.0178 1.784C22.9458 1.784 22.8618 1.796 22.7658 1.82C22.6778 1.844 22.6178 1.86 22.5858 1.868C22.4498 1.892 22.3658 1.848 22.3338 1.736C22.3098 1.616 22.3298 1.52 22.3938 1.448C22.4418 1.392 22.4938 1.348 22.5498 1.316C22.6058 1.276 22.6418 1.252 22.6578 1.244C22.6818 1.228 22.7418 1.212 22.8378 1.196C22.9418 1.172 23.0058 1.156 23.0298 1.148C23.1258 1.124 23.2618 1.08 23.4378 1.016C23.6138 0.944 23.7218 0.904 23.7618 0.895999C23.8098 0.879999 23.9178 0.832 24.0858 0.752C24.2618 0.672 24.4018 0.624 24.5058 0.607999C24.6338 0.592 24.7698 0.556 24.9138 0.499999C25.1298 0.427999 25.2498 0.391999 25.2738 0.391999C25.4978 0.391999 25.6378 0.431999 25.6938 0.512C25.7258 0.536 25.7338 0.571999 25.7178 0.619999C25.7098 0.66 25.7018 0.692 25.6938 0.715999C25.6858 0.732 25.6658 0.764 25.6338 0.812C25.6018 0.852 25.5818 0.884 25.5738 0.908C25.5578 0.948 25.5418 1.02 25.5258 1.124C25.5098 1.22 25.4818 1.292 25.4418 1.34C25.4258 1.364 25.3938 1.396 25.3458 1.436C25.3058 1.476 25.2778 1.508 25.2617 1.532C25.2538 1.548 25.2378 1.58 25.2138 1.628C25.1978 1.676 25.2018 1.716 25.2258 1.748C25.2818 1.916 25.2658 2.068 25.1777 2.204C25.1378 2.252 25.1258 2.332 25.1418 2.444C25.1578 2.548 25.1578 2.624 25.1418 2.672C25.1178 2.752 25.0658 2.936 24.9858 3.224C24.9058 3.504 24.8538 3.72 24.8298 3.872C24.7418 4.4 24.6978 4.76 24.6978 4.952C24.6978 5.112 24.6778 5.34 24.6378 5.636C24.5978 5.932 24.5738 6.12 24.5658 6.2C24.5498 6.344 24.5418 6.56 24.5418 6.848C24.5418 6.872 24.5498 6.94 24.5658 7.052C24.5818 7.164 24.5818 7.232 24.5658 7.256C24.5338 7.408 24.5458 7.752 24.6018 8.288C24.6498 8.68 24.7138 9.056 24.7938 9.416C24.8178 9.528 24.8298 9.7 24.8298 9.932C24.8298 9.996 24.8538 10.096 24.9018 10.232C24.9578 10.36 24.9818 10.456 24.9738 10.52C24.9658 10.664 24.9618 10.876 24.9618 11.156C24.9618 11.86 24.9338 12.356 24.8778 12.644C24.8778 12.652 24.8698 12.688 24.8538 12.752C24.8458 12.824 24.8378 12.876 24.8298 12.908C24.8218 12.948 24.8098 13.004 24.7938 13.076C24.7778 13.148 24.7578 13.204 24.7338 13.244C24.7178 13.284 24.6938 13.324 24.6618 13.364C24.6378 13.412 24.6058 13.44 24.5658 13.448C24.5338 13.464 24.4938 13.468 24.4458 13.46C24.3898 13.444 24.3538 13.4 24.3378 13.328C24.3298 13.256 24.3058 13.22 24.2658 13.22C24.2178 13.22 24.1778 13.232 24.1458 13.256C24.1218 13.288 24.0978 13.332 24.0738 13.388C24.0498 13.444 24.0298 13.484 24.0138 13.508C23.8778 13.7 23.6178 13.796 23.2338 13.796C23.1138 13.796 22.9978 13.784 22.8857 13.76C22.8058 13.744 22.7538 13.712 22.7298 13.664C22.7058 13.616 22.7218 13.568 22.7778 13.52C22.8098 13.496 22.8738 13.48 22.9698 13.472C23.0738 13.464 23.1338 13.44 23.1498 13.4C23.1658 13.352 23.1378 13.316 23.0658 13.292C22.9938 13.276 22.8978 13.268 22.7778 13.268C22.5138 13.268 22.3098 13.288 22.1658 13.328C21.8777 13.392 21.6817 13.416 21.5777 13.4C21.4977 13.384 21.3897 13.368 21.2537 13.352C21.1097 13.344 21.0057 13.336 20.9417 13.328ZM23.7258 13.292C23.7338 13.236 23.7098 13.208 23.6538 13.208C23.5978 13.208 23.5538 13.244 23.5218 13.316C23.5058 13.372 23.5298 13.4 23.5938 13.4C23.6738 13.4 23.7178 13.364 23.7258 13.292ZM24.6978 1.136C24.6658 1.144 24.6298 1.164 24.5898 1.196C24.5498 1.228 24.5498 1.256 24.5898 1.28C24.6538 1.32 24.7098 1.304 24.7578 1.232C24.7978 1.168 24.7858 1.136 24.7218 1.136C24.7138 1.136 24.7058 1.136 24.6978 1.136Z" fill="#DC3B5A"/>
</svg>
