<svg width="27" height="14" viewBox="0 0 27 14" fill="none" xmlns="http://www.w3.org/2000/svg">
<path d="M1.156 13.616C0.916 13.552 0.96 13.4 1.288 13.16C1.408 13.072 1.472 13.02 1.48 13.004C1.504 12.972 1.516 12.936 1.516 12.896C1.524 12.864 1.524 12.82 1.516 12.764C1.508 12.708 1.504 12.668 1.504 12.644V11.972C1.528 11.34 1.544 10.992 1.552 10.928C1.56 10.872 1.56 10.788 1.552 10.676C1.544 10.556 1.544 10.464 1.552 10.4C1.56 10.352 1.584 10.26 1.624 10.124C1.664 9.988 1.688 9.884 1.696 9.812C1.728 9.468 1.796 9.104 1.9 8.72C1.94 8.56 1.98 8.336 2.02 8.048C2.068 7.752 2.104 7.544 2.128 7.424C2.2 7.112 2.284 6.656 2.38 6.056C2.484 5.456 2.544 5.12 2.56 5.048C2.568 5.024 2.588 4.94 2.62 4.796C2.66 4.644 2.68 4.524 2.68 4.436C2.68 4.284 2.708 4.088 2.764 3.848C2.868 3.504 2.916 3.28 2.908 3.176C2.892 2.936 2.956 2.716 3.1 2.516C3.14 2.46 3.168 2.408 3.184 2.36C3.2 2.312 3.212 2.256 3.22 2.192C3.228 2.12 3.236 2.064 3.244 2.024C3.252 1.976 3.276 1.928 3.316 1.88C3.356 1.824 3.388 1.784 3.412 1.76C3.436 1.728 3.484 1.68 3.556 1.616C3.628 1.552 3.668 1.516 3.676 1.508C3.82 1.372 3.992 1.32 4.192 1.352C4.28 1.368 4.4 1.36 4.552 1.328C4.712 1.288 4.824 1.268 4.888 1.268C4.952 1.26 4.988 1.26 4.996 1.268C5.468 1.268 5.828 1.312 6.076 1.4C6.148 1.424 6.264 1.464 6.424 1.52C6.592 1.568 6.736 1.616 6.856 1.664C6.984 1.712 7.1 1.768 7.204 1.832C7.332 1.912 7.396 2.016 7.396 2.144C7.396 2.304 7.284 2.36 7.06 2.312C6.7 2.232 6.236 2.148 5.668 2.06C5.532 2.036 5.34 2.032 5.092 2.048C4.852 2.064 4.664 2.064 4.528 2.048C4.416 2.032 4.34 2.06 4.3 2.132C4.268 2.196 4.256 2.296 4.264 2.432C4.28 2.56 4.284 2.636 4.276 2.66C4.244 2.804 4.212 3.008 4.18 3.272C4.148 3.536 4.12 3.724 4.096 3.836C4.088 3.876 4.06 3.956 4.012 4.076C3.964 4.196 3.94 4.284 3.94 4.34C3.94 4.484 3.9 4.692 3.82 4.964C3.788 5.084 3.756 5.26 3.724 5.492C3.7 5.724 3.668 5.896 3.628 6.008C3.492 6.464 3.384 6.9 3.304 7.316C3.256 7.596 3.156 7.996 3.004 8.516C2.852 9.036 2.752 9.412 2.704 9.644C2.6 10.132 2.524 10.52 2.476 10.808C2.452 10.936 2.424 11.124 2.392 11.372C2.368 11.62 2.344 11.804 2.32 11.924C2.288 12.172 2.276 12.336 2.284 12.416C2.284 12.44 2.28 12.484 2.272 12.548C2.272 12.62 2.272 12.684 2.272 12.74C2.28 12.796 2.3 12.84 2.332 12.872C2.388 12.928 2.5 12.956 2.668 12.956C2.74 12.956 2.844 12.948 2.98 12.932C3.116 12.924 3.196 12.92 3.22 12.92C3.356 12.92 3.396 12.872 3.34 12.776C3.324 12.752 3.248 12.74 3.112 12.74C2.808 12.74 2.644 12.736 2.62 12.728C2.54 12.696 2.512 12.652 2.536 12.596C2.56 12.548 2.604 12.508 2.668 12.476C2.74 12.444 2.82 12.428 2.908 12.428C3.012 12.428 3.12 12.452 3.232 12.5C3.296 12.524 3.388 12.544 3.508 12.56C3.636 12.576 3.732 12.596 3.796 12.62C3.956 12.684 4.132 12.728 4.324 12.752C4.46 12.776 4.588 12.86 4.708 13.004C4.756 13.06 4.828 13.12 4.924 13.184C5.028 13.256 5.096 13.308 5.128 13.34C5.192 13.404 5.212 13.468 5.188 13.532C5.172 13.596 5.124 13.648 5.044 13.688C4.98 13.72 4.908 13.736 4.828 13.736C4.74 13.736 4.636 13.716 4.516 13.676C4.188 13.564 3.816 13.516 3.4 13.532C3.296 13.54 3.132 13.54 2.908 13.532C2.692 13.524 2.528 13.524 2.416 13.532C2.128 13.548 1.908 13.556 1.756 13.556C1.716 13.556 1.624 13.568 1.48 13.592C1.336 13.624 1.228 13.632 1.156 13.616ZM3.712 2.636C3.712 2.644 3.708 2.688 3.7 2.768C3.692 2.848 3.688 2.92 3.688 2.984C3.688 3.048 3.7 3.088 3.724 3.104C3.764 3.128 3.8 3.128 3.832 3.104C3.864 3.072 3.884 3.024 3.892 2.96C3.908 2.896 3.916 2.844 3.916 2.804C3.924 2.756 3.928 2.72 3.928 2.696C3.928 2.672 3.932 2.632 3.94 2.576C3.948 2.52 3.952 2.472 3.952 2.432C3.952 2.392 3.948 2.348 3.94 2.3C3.94 2.252 3.928 2.216 3.904 2.192C3.88 2.168 3.844 2.156 3.796 2.156C3.74 2.156 3.712 2.316 3.712 2.636ZM10.5804 8C10.5804 7.856 10.6924 7.596 10.9164 7.22C10.9564 7.148 10.9844 7.076 11.0004 7.004C11.0164 6.924 11.0244 6.88 11.0244 6.872C11.1204 6.656 11.2804 6.38 11.5044 6.044C11.7364 5.7 11.9364 5.456 12.1044 5.312C12.1764 5.248 12.2604 5.16 12.3564 5.048C12.4524 4.928 12.5244 4.852 12.5724 4.82C12.6924 4.732 12.7684 4.636 12.8004 4.532C12.8244 4.452 12.8884 4.332 12.9924 4.172C13.1044 4.012 13.1924 3.932 13.2564 3.932C13.3124 3.932 13.3604 3.96 13.4004 4.016C13.4404 4.072 13.4804 4.116 13.5204 4.148C13.6644 4.244 13.7364 4.32 13.7364 4.376C13.7364 4.456 13.7124 4.528 13.6644 4.592C13.5284 4.816 13.3444 5.064 13.1124 5.336C13.0884 5.368 13.0564 5.408 13.0164 5.456C12.9844 5.504 12.9324 5.58 12.8604 5.684C12.7964 5.78 12.7324 5.872 12.6684 5.96C12.5644 6.104 12.4604 6.204 12.3564 6.26C12.2524 6.316 12.1764 6.344 12.1284 6.344C12.0884 6.336 12.0684 6.348 12.0684 6.38C12.0684 6.404 12.1044 6.48 12.1764 6.608C12.1844 6.624 12.1804 6.636 12.1644 6.644C12.1484 6.644 12.1244 6.648 12.0924 6.656C12.0604 6.656 12.0364 6.668 12.0204 6.692C11.9244 6.828 11.8804 6.932 11.8884 7.004C11.9044 7.076 11.8524 7.16 11.7324 7.256C11.7324 7.264 11.7124 7.272 11.6724 7.28C11.6324 7.288 11.5924 7.312 11.5524 7.352C11.5124 7.392 11.4924 7.46 11.4924 7.556C11.4924 7.636 11.4924 7.672 11.4924 7.664C11.5004 7.688 11.5444 7.708 11.6244 7.724C11.6484 7.732 11.6764 7.728 11.7084 7.712C11.7404 7.696 11.7684 7.688 11.7924 7.688C11.8404 7.688 11.8964 7.7 11.9604 7.724C12.0244 7.74 12.0724 7.748 12.1044 7.748C12.2884 7.748 12.4404 7.728 12.5604 7.688C12.6404 7.656 12.7604 7.552 12.9204 7.376C13.0804 7.2 13.1884 7.06 13.2444 6.956C13.4204 6.628 13.5724 6.384 13.7004 6.224C13.7164 6.208 13.7244 6.188 13.7244 6.164C13.7324 6.14 13.7364 6.12 13.7364 6.104C13.7444 6.088 13.7564 6.08 13.7724 6.08C13.8044 6.08 13.8244 6.088 13.8324 6.104C13.8404 6.112 13.8404 6.132 13.8324 6.164C13.8244 6.196 13.8204 6.216 13.8204 6.224C13.8204 6.248 13.8204 6.272 13.8204 6.296C13.8284 6.312 13.8324 6.324 13.8324 6.332C13.8324 6.388 13.8004 6.508 13.7364 6.692C13.6724 6.876 13.6204 6.996 13.5804 7.052C13.4844 7.188 13.3804 7.3 13.2684 7.388C13.1644 7.476 13.0804 7.54 13.0164 7.58C12.9604 7.62 12.9324 7.652 12.9324 7.676C12.9324 7.772 13.1164 7.82 13.4844 7.82C13.5084 7.82 13.5284 7.82 13.5444 7.82C13.5604 7.82 13.5764 7.82 13.5924 7.82C13.7604 7.82 13.8684 7.764 13.9164 7.652C13.9964 7.572 14.0844 7.424 14.1804 7.208C14.2844 6.992 14.3644 6.844 14.4204 6.764C14.4364 6.74 14.4684 6.684 14.5164 6.596C14.5644 6.5 14.6084 6.436 14.6484 6.404C14.7044 6.356 14.7804 6.256 14.8764 6.104C14.9724 5.952 15.0444 5.864 15.0924 5.84C15.2124 5.776 15.3844 5.744 15.6084 5.744C15.6564 5.744 15.7204 5.712 15.8004 5.648C15.8884 5.576 15.9364 5.54 15.9444 5.54C15.9924 5.54 16.0164 5.56 16.0164 5.6C16.0164 5.64 16.0004 5.688 15.9684 5.744C15.9444 5.792 15.9324 5.828 15.9324 5.852C15.9324 5.892 15.9724 5.912 16.0524 5.912C16.0604 5.912 16.0764 5.912 16.1004 5.912C16.1324 5.904 16.1564 5.904 16.1724 5.912C16.1884 5.912 16.2084 5.916 16.2324 5.924C16.2564 5.932 16.2724 5.952 16.2804 5.984C16.2884 6.008 16.2924 6.044 16.2924 6.092C16.2924 6.132 16.2404 6.256 16.1364 6.464C16.1044 6.512 16.0364 6.636 15.9324 6.836C15.8364 7.028 15.7684 7.152 15.7284 7.208C15.7204 7.216 15.6604 7.288 15.5484 7.424C15.4364 7.552 15.3724 7.644 15.3564 7.7C15.3324 7.764 15.3444 7.796 15.3924 7.796C15.4244 7.796 15.4484 7.792 15.4644 7.784C15.4884 7.768 15.5204 7.748 15.5604 7.724C15.6084 7.7 15.6524 7.68 15.6924 7.664C16.3004 7.4 16.6604 7.268 16.7724 7.268C16.8444 7.268 16.8804 7.292 16.8804 7.34C16.8804 7.372 16.8364 7.428 16.7484 7.508C16.6604 7.588 16.5684 7.656 16.4724 7.712L16.1244 7.904C16.0524 7.944 15.9724 7.976 15.8844 8C15.7964 8.024 15.7364 8.048 15.7044 8.072C15.6724 8.088 15.6564 8.116 15.6564 8.156C15.6564 8.236 15.7484 8.292 15.9324 8.324C16.1084 8.356 16.2204 8.388 16.2684 8.42C16.3084 8.452 16.3644 8.476 16.4364 8.492C16.5084 8.508 16.5764 8.532 16.6404 8.564C16.6564 8.572 16.7524 8.576 16.9284 8.576C16.9764 8.576 17.0324 8.584 17.0964 8.6C17.1684 8.608 17.2444 8.644 17.3244 8.708C17.4124 8.764 17.4564 8.844 17.4564 8.948C17.4564 8.996 17.4164 9.052 17.3364 9.116C17.2644 9.18 17.1764 9.212 17.0724 9.212C17.0404 9.212 16.8844 9.184 16.6044 9.128C16.5724 9.12 16.5284 9.116 16.4724 9.116C16.4164 9.116 16.3724 9.112 16.3404 9.104C16.2924 9.096 16.2164 9.072 16.1124 9.032C16.0084 8.984 15.9364 8.96 15.8964 8.96C15.8724 8.96 15.8164 8.964 15.7284 8.972C15.6404 8.98 15.5764 8.984 15.5364 8.984C15.4404 8.984 15.3124 8.944 15.1524 8.864C15.1284 8.848 15.0884 8.824 15.0324 8.792C14.9764 8.76 14.9284 8.732 14.8884 8.708C14.8484 8.684 14.8164 8.672 14.7924 8.672C14.7204 8.672 14.6564 8.7 14.6004 8.756C14.5524 8.804 14.5044 8.876 14.4564 8.972C14.4084 9.068 14.3684 9.132 14.3364 9.164C14.2244 9.316 14.1004 9.476 13.9644 9.644C13.8364 9.812 13.7444 9.936 13.6884 10.016C13.6324 10.088 13.5764 10.168 13.5204 10.256C13.4644 10.336 13.4164 10.412 13.3764 10.484C13.3604 10.516 13.2764 10.632 13.1244 10.832C12.9804 11.024 12.9084 11.172 12.9084 11.276C12.9084 11.356 12.8484 11.44 12.7284 11.528C12.6164 11.616 12.5284 11.66 12.4644 11.66C12.3924 11.66 12.3284 11.632 12.2724 11.576C12.2164 11.528 12.1884 11.468 12.1884 11.396C12.1884 11.316 12.2204 11.236 12.2844 11.156C12.3004 11.132 12.3124 11.084 12.3204 11.012C12.3364 10.948 12.3564 10.896 12.3804 10.856C12.4284 10.808 12.4724 10.676 12.5124 10.46C12.5604 10.236 12.6164 10.084 12.6804 10.004C12.8324 9.82 12.9124 9.664 12.9204 9.536C12.9284 9.464 12.9884 9.34 13.1004 9.164C13.2124 8.988 13.2684 8.864 13.2684 8.792C13.2684 8.728 13.2284 8.696 13.1484 8.696C12.9884 8.712 12.8404 8.72 12.7044 8.72C12.6084 8.728 12.4804 8.724 12.3204 8.708C12.1604 8.692 12.0684 8.684 12.0444 8.684C11.9724 8.684 11.8484 8.648 11.6724 8.576C11.5044 8.496 11.4084 8.452 11.3844 8.444C11.0564 8.316 10.8444 8.24 10.7484 8.216C10.7404 8.216 10.7244 8.208 10.7004 8.192C10.6764 8.176 10.6484 8.152 10.6164 8.12C10.5924 8.08 10.5804 8.04 10.5804 8ZM15.8484 5.24C15.8324 5.208 15.8524 5.16 15.9084 5.096C15.9724 5.024 16.0524 4.964 16.1484 4.916C16.1644 4.908 16.1844 4.912 16.2084 4.928C16.2324 4.936 16.2444 4.956 16.2444 4.988C16.2524 5.012 16.2444 5.036 16.2204 5.06L16.1964 5.144C16.1724 5.2 16.1444 5.252 16.1124 5.3C16.0804 5.34 16.0444 5.36 16.0044 5.36C15.9324 5.36 15.8804 5.32 15.8484 5.24ZM15.4404 6.752C15.4404 6.816 15.4684 6.86 15.5244 6.884C15.5804 6.9 15.6364 6.88 15.6924 6.824C15.7004 6.816 15.7164 6.804 15.7404 6.788C15.7724 6.772 15.7924 6.752 15.8004 6.728C15.8084 6.704 15.8124 6.66 15.8124 6.596C15.8124 6.572 15.8004 6.548 15.7764 6.524C15.7524 6.5 15.7244 6.496 15.6924 6.512C15.6684 6.52 15.6484 6.548 15.6324 6.596C15.6324 6.604 15.6004 6.628 15.5364 6.668C15.4724 6.7 15.4404 6.728 15.4404 6.752ZM15.1404 6.068C15.1404 6.26 15.1684 6.356 15.2244 6.356C15.2484 6.356 15.2684 6.344 15.2844 6.32C15.3084 6.288 15.3244 6.26 15.3324 6.236C15.3404 6.212 15.3524 6.2 15.3684 6.2C15.4004 6.208 15.4164 6.164 15.4164 6.068C15.4164 5.988 15.3724 5.948 15.2844 5.948C15.1884 5.948 15.1404 5.988 15.1404 6.068ZM15.1524 7.352C15.1524 7.36 15.1444 7.38 15.1284 7.412C15.1044 7.492 15.1084 7.532 15.1404 7.532C15.2284 7.532 15.2724 7.484 15.2724 7.388C15.2724 7.38 15.2764 7.36 15.2844 7.328C15.2924 7.248 15.2804 7.204 15.2484 7.196C15.1844 7.196 15.1524 7.248 15.1524 7.352ZM15.0564 7.64C15.0404 7.624 15.0124 7.64 14.9724 7.688C14.9324 7.736 14.9124 7.776 14.9124 7.808C14.9124 7.864 14.9444 7.884 15.0084 7.868C15.0564 7.852 15.0804 7.82 15.0804 7.772C15.0804 7.692 15.0724 7.648 15.0564 7.64ZM14.9604 6.728C14.9764 6.872 15.0204 6.844 15.0924 6.644L15.1044 6.608C15.1124 6.552 15.1164 6.524 15.1164 6.524C15.0764 6.524 15.0404 6.552 15.0084 6.608C14.9764 6.664 14.9604 6.704 14.9604 6.728ZM14.1804 8.72C14.1324 8.8 14.1364 8.84 14.1924 8.84C14.2164 8.84 14.2364 8.82 14.2524 8.78C14.2764 8.74 14.2764 8.716 14.2524 8.708L14.1804 8.72ZM14.4444 7.808C14.4444 7.816 14.4564 7.832 14.4804 7.856C14.5364 7.856 14.5644 7.828 14.5644 7.772C14.5644 7.764 14.5564 7.752 14.5404 7.736L14.5284 7.724C14.4724 7.724 14.4444 7.752 14.4444 7.808ZM13.1244 4.424C13.1244 4.464 13.1404 4.484 13.1724 4.484C13.2124 4.484 13.2324 4.464 13.2324 4.424C13.2324 4.376 13.2124 4.352 13.1724 4.352C13.1404 4.352 13.1244 4.376 13.1244 4.424ZM21.6097 13.328C21.4417 13.296 21.3137 13.228 21.2257 13.124C21.1377 13.028 21.1537 12.916 21.2737 12.788C21.4417 12.652 21.6897 12.584 22.0177 12.584C22.0657 12.584 22.1417 12.584 22.2457 12.584C22.3417 12.592 22.4097 12.596 22.4497 12.596C22.7777 12.62 22.9897 12.624 23.0857 12.608C23.1497 12.592 23.2337 12.556 23.3377 12.5C23.4417 12.444 23.5217 12.412 23.5777 12.404C23.6497 12.388 23.7777 12.396 23.9617 12.428C24.1537 12.468 24.2857 12.488 24.3577 12.488C24.5017 12.488 24.5977 12.448 24.6457 12.368C24.6857 12.352 24.6857 12.272 24.6457 12.128C24.6137 11.984 24.5977 11.9 24.5977 11.876C24.5977 11.756 24.5897 11.56 24.5737 11.288C24.5657 11.224 24.5657 11.136 24.5737 11.024C24.5897 10.92 24.5977 10.848 24.5977 10.808C24.5977 10.736 24.5497 10.664 24.4537 10.592C24.3657 10.52 24.3137 10.464 24.2977 10.424C24.2817 10.376 24.2857 10.3 24.3097 10.196C24.3337 10.084 24.3417 10.008 24.3337 9.968C24.3097 9.784 24.2977 9.608 24.2977 9.44C24.2977 9.016 24.3137 8.696 24.3457 8.48C24.3697 8.336 24.3897 8.14 24.4057 7.892C24.4297 7.636 24.4497 7.456 24.4657 7.352C24.4817 7.224 24.4977 7.088 24.5137 6.944C24.5377 6.792 24.5617 6.628 24.5857 6.452C24.6097 6.276 24.6297 6.136 24.6457 6.032C24.6617 5.912 24.6777 5.728 24.6937 5.48C24.7097 5.224 24.7257 5.036 24.7417 4.916C24.7577 4.804 24.7697 4.616 24.7777 4.352C24.7937 4.08 24.8177 3.876 24.8497 3.74C24.9457 3.244 25.0337 2.868 25.1137 2.612C25.1217 2.588 25.1377 2.516 25.1617 2.396C25.1937 2.276 25.2217 2.188 25.2457 2.132C25.3337 1.932 25.3377 1.756 25.2577 1.604C25.1777 1.452 25.1097 1.376 25.0537 1.376C24.9977 1.376 24.9297 1.416 24.8497 1.496C24.7617 1.576 24.5897 1.644 24.3337 1.7C24.0777 1.756 23.8617 1.784 23.6857 1.784C23.6137 1.784 23.5297 1.796 23.4337 1.82C23.3457 1.844 23.2857 1.86 23.2537 1.868C23.1177 1.892 23.0337 1.848 23.0017 1.736C22.9777 1.616 22.9977 1.52 23.0617 1.448C23.1097 1.392 23.1617 1.348 23.2177 1.316C23.2737 1.276 23.3097 1.252 23.3257 1.244C23.3497 1.228 23.4097 1.212 23.5057 1.196C23.6097 1.172 23.6737 1.156 23.6977 1.148C23.7937 1.124 23.9297 1.08 24.1057 1.016C24.2817 0.944 24.3897 0.904 24.4297 0.895999C24.4777 0.879999 24.5857 0.832 24.7537 0.752C24.9297 0.672 25.0697 0.624 25.1737 0.607999C25.3017 0.592 25.4377 0.556 25.5817 0.499999C25.7977 0.427999 25.9177 0.391999 25.9417 0.391999C26.1657 0.391999 26.3057 0.431999 26.3617 0.512C26.3937 0.536 26.4017 0.571999 26.3857 0.619999C26.3777 0.66 26.3697 0.692 26.3617 0.715999C26.3537 0.732 26.3337 0.764 26.3017 0.812C26.2697 0.852 26.2497 0.884 26.2417 0.908C26.2257 0.948 26.2097 1.02 26.1937 1.124C26.1777 1.22 26.1497 1.292 26.1097 1.34C26.0937 1.364 26.0617 1.396 26.0137 1.436C25.9737 1.476 25.9457 1.508 25.9297 1.532C25.9217 1.548 25.9057 1.58 25.8817 1.628C25.8657 1.676 25.8697 1.716 25.8937 1.748C25.9497 1.916 25.9337 2.068 25.8457 2.204C25.8057 2.252 25.7937 2.332 25.8097 2.444C25.8257 2.548 25.8257 2.624 25.8097 2.672C25.7857 2.752 25.7337 2.936 25.6537 3.224C25.5737 3.504 25.5217 3.72 25.4977 3.872C25.4097 4.4 25.3657 4.76 25.3657 4.952C25.3657 5.112 25.3457 5.34 25.3057 5.636C25.2657 5.932 25.2417 6.12 25.2337 6.2C25.2177 6.344 25.2097 6.56 25.2097 6.848C25.2097 6.872 25.2177 6.94 25.2337 7.052C25.2497 7.164 25.2497 7.232 25.2337 7.256C25.2017 7.408 25.2137 7.752 25.2697 8.288C25.3177 8.68 25.3817 9.056 25.4617 9.416C25.4857 9.528 25.4977 9.7 25.4977 9.932C25.4977 9.996 25.5217 10.096 25.5697 10.232C25.6257 10.36 25.6497 10.456 25.6417 10.52C25.6337 10.664 25.6297 10.876 25.6297 11.156C25.6297 11.86 25.6017 12.356 25.5457 12.644C25.5457 12.652 25.5377 12.688 25.5217 12.752C25.5137 12.824 25.5057 12.876 25.4977 12.908C25.4897 12.948 25.4777 13.004 25.4617 13.076C25.4457 13.148 25.4257 13.204 25.4017 13.244C25.3857 13.284 25.3617 13.324 25.3297 13.364C25.3057 13.412 25.2737 13.44 25.2337 13.448C25.2017 13.464 25.1617 13.468 25.1137 13.46C25.0577 13.444 25.0217 13.4 25.0057 13.328C24.9977 13.256 24.9737 13.22 24.9337 13.22C24.8857 13.22 24.8457 13.232 24.8137 13.256C24.7897 13.288 24.7657 13.332 24.7417 13.388C24.7177 13.444 24.6977 13.484 24.6817 13.508C24.5457 13.7 24.2857 13.796 23.9017 13.796C23.7817 13.796 23.6657 13.784 23.5537 13.76C23.4737 13.744 23.4217 13.712 23.3977 13.664C23.3737 13.616 23.3897 13.568 23.4457 13.52C23.4777 13.496 23.5417 13.48 23.6377 13.472C23.7417 13.464 23.8017 13.44 23.8177 13.4C23.8337 13.352 23.8057 13.316 23.7337 13.292C23.6617 13.276 23.5657 13.268 23.4457 13.268C23.1817 13.268 22.9777 13.288 22.8337 13.328C22.5457 13.392 22.3497 13.416 22.2457 13.4C22.1657 13.384 22.0577 13.368 21.9217 13.352C21.7777 13.344 21.6737 13.336 21.6097 13.328ZM24.3937 13.292C24.4017 13.236 24.3777 13.208 24.3217 13.208C24.2657 13.208 24.2217 13.244 24.1897 13.316C24.1737 13.372 24.1977 13.4 24.2617 13.4C24.3417 13.4 24.3857 13.364 24.3937 13.292ZM25.3657 1.136C25.3337 1.144 25.2977 1.164 25.2577 1.196C25.2177 1.228 25.2177 1.256 25.2577 1.28C25.3217 1.32 25.3777 1.304 25.4257 1.232C25.4657 1.168 25.4537 1.136 25.3897 1.136C25.3817 1.136 25.3737 1.136 25.3657 1.136Z" fill="#DC3B5A"/>
</svg>
