<svg xmlns="http://www.w3.org/2000/svg" xml:space="preserve" style="fill-rule:evenodd;clip-rule:evenodd;stroke-linejoin:round;stroke-miterlimit:2" viewBox="0 0 412 412"><g transform="translate(-.76 -.74)"><path d="M.76.74h411.112v411.112H.76z" style="fill:none"/><clipPath id="a"><path d="M.76.74h411.112v411.112H.76z"/></clipPath><g clip-path="url(#a)"><path d="M207.075 1.48c113.45 0 205.559 92.105 205.559 205.555s-92.109 205.558-205.559 205.558S1.521 320.485 1.521 207.035C1.52 93.585 93.625 1.48 207.075 1.48Zm56.15 148.926 1.092 1.4c.542.7 1.07 1.383 1.537 2.008.417.833 1.25 1.667 1.667 2.917a63.37 63.37 0 0 1 2.017 3.283l.55.933c.637 1.096 1.287 2.192 2.016 3.284.417 1.25 1.25 2.5 1.667 3.75 1.667 3.333 2.917 6.666 3.333 10.416.417.834.417 1.667.417 2.084.417.833.417 2.083.417 3.333.416 3.75 0 7.083-.417 10.833a55.784 55.784 0 0 1-.467 1.742l-.312 1.1a55.39 55.39 0 0 0-.47 1.742c-.418 1.25-.834 2.916-1.668 4.583-1.25 2.917-2.916 5.833-4.583 8.75-.417.833-1.25 2.083-2.083 3.333-.834 1.25-1.667 2.084-2.084 3.334-.833 1.25-2.083 2.5-2.916 3.75-.834 1.25-1.667 2.5-2.917 3.75-1.25 1.666-2.917 3.333-4.167 5-.833.833-1.666 2.083-2.916 2.916-.834.834-1.667 2.084-2.917 2.917-1.25 1.25-2.5 2.5-3.75 3.333l-2.5 2.084c-.417.416-.833.416-1.25.416h-18.333v23.334h22.916c5 0 10-1.667 13.75-5 1.25-1.25 7.084-6.25 14.167-13.75.417-.417.417-.417.833-.417l63.334-18.333c2.5-1.25 3.333-.417 3.333.833v13.333c0 .834-.416 1.25-1.25 1.667-4.166 1.667-18.75 8.333-24.583 16.667-15.417 21.25-27.083 51.666-52.917 51.666h-108.75c-38.333 0-69.583-31.25-69.583-70v-1.25c0-.833.833-1.666 1.666-1.666h61.25c1.25 0 2.084 1.25 2.084 2.083-.417 3.75.416 7.917 2.083 11.667 3.75 7.5 11.25 11.666 19.167 11.666h30v-23.333h-29.584c-1.666 0-2.5-1.667-1.666-2.917.416-.416.833-.833 1.25-1.666 2.916-4.167 6.666-10 10.833-17.084 2.917-4.583 5.417-10 7.5-15 .417-.833.833-1.666 1.25-2.916.417-1.667 1.25-3.334 1.667-4.584l1.25-3.75c.833-4.166 1.25-8.75 1.25-13.75 0-1.666 0-3.75-.417-5.833 0-.913-.08-1.825-.17-2.733l-.076-.784c-.091-.912-.17-1.82-.17-2.733 0-1.667-.417-3.75-.834-5.417-.417-2.916-.833-5.416-1.667-8.333l-.416-.833c-.417-1.667-.834-3.75-1.667-5.417a155.467 155.467 0 0 0-5.833-16.667l-2.5-6.25c-1.25-2.916-2.5-5.833-3.75-8.333-.417-1.25-1.25-2.083-1.667-3.333-.417-1.25-1.25-2.5-1.667-3.75l-1.25-2.5-3.75-6.667c-.416-.833.417-2.083 1.25-1.667l22.917 6.25 2.917.834 3.333.833 1.25.417V94.23c0-6.667 5.417-12.084 11.667-12.084 3.333 0 6.25 1.25 8.333 3.334 2.083 2.083 3.333 5 3.333 8.333v20l2.5.833s.417 0 .417.417c.417.417 1.25 1.25 2.5 2.083.833.834 1.667 1.667 2.917 2.5 2.083 1.667 5 4.167 7.916 6.667.834.833 1.667 1.25 2.084 2.083 3.75 3.334 7.916 7.5 12.083 12.084 1.25 1.25 2.083 2.5 3.333 3.75s2.084 2.916 3.334 4.166c.47.625.996 1.309 1.537 2.009ZM101.271 214.23l.833-1.25 54.167-84.584c.833-1.25 2.5-1.25 3.333.417 9.167 20.417 16.667 45.417 13.334 61.25-1.667 6.667-5.834 15.417-10.834 23.333-.416 1.25-1.25 2.5-2.083 3.334-.417.416-.833.833-1.667.833h-55.833c-1.25-.417-2.083-2.083-1.25-3.333Z"/></g></g></svg>